G04 EAGLE Gerber RS-274X export*
G75*
%MOMM*%
%FSLAX34Y34*%
%LPD*%
%INMechanical*%
%IPPOS*%
%AMOC8*
5,1,8,0,0,1.08239X$1,22.5*%
G01*
%ADD10C,0.000000*%
%ADD11C,0.254000*%


D10*
X10000Y150000D02*
X10000Y415000D01*
X25000Y453000D02*
X332000Y453000D01*
X345000Y415000D02*
X345000Y150000D01*
X345000Y415000D02*
X332000Y415000D01*
X332000Y453000D01*
X25000Y415000D02*
X10000Y415000D01*
X25000Y415000D02*
X25000Y453000D01*
X30000Y72000D02*
X30000Y0D01*
X140400Y0D01*
X141500Y1100D02*
X141500Y89600D01*
X142900Y91000D02*
X156100Y91000D01*
X157500Y89600D02*
X157500Y1100D01*
X158600Y0D02*
X245400Y0D01*
X246500Y1100D02*
X246500Y89600D01*
X247900Y91000D02*
X261100Y91000D01*
X262500Y89600D02*
X262500Y1100D01*
X263600Y0D02*
X327000Y0D01*
X327000Y72000D01*
X30000Y72000D02*
X10000Y72000D01*
X10000Y150000D01*
X327000Y72000D02*
X345000Y72000D01*
X345000Y150000D01*
X142900Y91000D02*
X142827Y90998D01*
X142754Y90992D01*
X142681Y90983D01*
X142609Y90969D01*
X142538Y90952D01*
X142467Y90931D01*
X142398Y90907D01*
X142331Y90879D01*
X142264Y90847D01*
X142200Y90812D01*
X142138Y90774D01*
X142077Y90733D01*
X142019Y90688D01*
X141963Y90640D01*
X141910Y90590D01*
X141860Y90537D01*
X141812Y90481D01*
X141767Y90423D01*
X141726Y90362D01*
X141688Y90300D01*
X141653Y90236D01*
X141621Y90169D01*
X141593Y90102D01*
X141569Y90033D01*
X141548Y89962D01*
X141531Y89891D01*
X141517Y89819D01*
X141508Y89746D01*
X141502Y89673D01*
X141500Y89600D01*
X156100Y91000D02*
X156173Y90998D01*
X156246Y90992D01*
X156319Y90983D01*
X156391Y90969D01*
X156462Y90952D01*
X156533Y90931D01*
X156602Y90907D01*
X156669Y90879D01*
X156736Y90847D01*
X156800Y90812D01*
X156862Y90774D01*
X156923Y90733D01*
X156981Y90688D01*
X157037Y90640D01*
X157090Y90590D01*
X157140Y90537D01*
X157188Y90481D01*
X157233Y90423D01*
X157274Y90362D01*
X157312Y90300D01*
X157347Y90236D01*
X157379Y90169D01*
X157407Y90102D01*
X157431Y90033D01*
X157452Y89962D01*
X157469Y89891D01*
X157483Y89819D01*
X157492Y89746D01*
X157498Y89673D01*
X157500Y89600D01*
X246500Y89600D02*
X246502Y89673D01*
X246508Y89746D01*
X246517Y89819D01*
X246531Y89891D01*
X246548Y89962D01*
X246569Y90033D01*
X246593Y90102D01*
X246621Y90169D01*
X246653Y90236D01*
X246688Y90300D01*
X246726Y90362D01*
X246767Y90423D01*
X246812Y90481D01*
X246860Y90537D01*
X246910Y90590D01*
X246963Y90640D01*
X247019Y90688D01*
X247077Y90733D01*
X247138Y90774D01*
X247200Y90812D01*
X247264Y90847D01*
X247331Y90879D01*
X247398Y90907D01*
X247467Y90931D01*
X247538Y90952D01*
X247609Y90969D01*
X247681Y90983D01*
X247754Y90992D01*
X247827Y90998D01*
X247900Y91000D01*
X261100Y91000D02*
X261173Y90998D01*
X261246Y90992D01*
X261319Y90983D01*
X261391Y90969D01*
X261462Y90952D01*
X261533Y90931D01*
X261602Y90907D01*
X261669Y90879D01*
X261736Y90847D01*
X261800Y90812D01*
X261862Y90774D01*
X261923Y90733D01*
X261981Y90688D01*
X262037Y90640D01*
X262090Y90590D01*
X262140Y90537D01*
X262188Y90481D01*
X262233Y90423D01*
X262274Y90362D01*
X262312Y90300D01*
X262347Y90236D01*
X262379Y90169D01*
X262407Y90102D01*
X262431Y90033D01*
X262452Y89962D01*
X262469Y89891D01*
X262483Y89819D01*
X262492Y89746D01*
X262498Y89673D01*
X262500Y89600D01*
X141500Y1100D02*
X141498Y1036D01*
X141493Y972D01*
X141483Y909D01*
X141470Y846D01*
X141454Y785D01*
X141434Y724D01*
X141410Y664D01*
X141383Y606D01*
X141353Y550D01*
X141319Y496D01*
X141282Y443D01*
X141243Y393D01*
X141200Y345D01*
X141155Y300D01*
X141107Y257D01*
X141057Y218D01*
X141004Y181D01*
X140950Y147D01*
X140894Y117D01*
X140836Y90D01*
X140776Y66D01*
X140715Y46D01*
X140654Y30D01*
X140591Y17D01*
X140528Y7D01*
X140464Y2D01*
X140400Y0D01*
X157500Y1100D02*
X157502Y1036D01*
X157507Y972D01*
X157517Y909D01*
X157530Y846D01*
X157546Y785D01*
X157566Y724D01*
X157590Y664D01*
X157617Y606D01*
X157647Y550D01*
X157681Y496D01*
X157718Y443D01*
X157757Y393D01*
X157800Y345D01*
X157845Y300D01*
X157893Y257D01*
X157943Y218D01*
X157996Y181D01*
X158050Y147D01*
X158106Y117D01*
X158164Y90D01*
X158224Y66D01*
X158285Y46D01*
X158346Y30D01*
X158409Y17D01*
X158472Y7D01*
X158536Y2D01*
X158600Y0D01*
X245400Y0D02*
X245464Y2D01*
X245528Y7D01*
X245591Y17D01*
X245654Y30D01*
X245715Y46D01*
X245776Y66D01*
X245836Y90D01*
X245894Y117D01*
X245950Y147D01*
X246004Y181D01*
X246057Y218D01*
X246107Y257D01*
X246155Y300D01*
X246200Y345D01*
X246243Y393D01*
X246282Y443D01*
X246319Y496D01*
X246353Y550D01*
X246383Y606D01*
X246410Y664D01*
X246434Y724D01*
X246454Y785D01*
X246470Y846D01*
X246483Y909D01*
X246493Y972D01*
X246498Y1036D01*
X246500Y1100D01*
X262500Y1100D02*
X262502Y1036D01*
X262507Y972D01*
X262517Y909D01*
X262530Y846D01*
X262546Y785D01*
X262566Y724D01*
X262590Y664D01*
X262617Y606D01*
X262647Y550D01*
X262681Y496D01*
X262718Y443D01*
X262757Y393D01*
X262800Y345D01*
X262845Y300D01*
X262893Y257D01*
X262943Y218D01*
X262996Y181D01*
X263050Y147D01*
X263106Y117D01*
X263164Y90D01*
X263224Y66D01*
X263285Y46D01*
X263346Y30D01*
X263409Y17D01*
X263472Y7D01*
X263536Y2D01*
X263600Y0D01*
X142000Y439000D02*
X142002Y439126D01*
X142008Y439252D01*
X142018Y439378D01*
X142032Y439504D01*
X142050Y439629D01*
X142072Y439753D01*
X142097Y439877D01*
X142127Y440000D01*
X142160Y440121D01*
X142198Y440242D01*
X142239Y440361D01*
X142284Y440480D01*
X142332Y440596D01*
X142384Y440711D01*
X142440Y440824D01*
X142500Y440936D01*
X142563Y441045D01*
X142629Y441153D01*
X142698Y441258D01*
X142771Y441361D01*
X142848Y441462D01*
X142927Y441560D01*
X143009Y441656D01*
X143095Y441749D01*
X143183Y441840D01*
X143274Y441927D01*
X143368Y442012D01*
X143464Y442093D01*
X143563Y442172D01*
X143664Y442247D01*
X143768Y442319D01*
X143874Y442388D01*
X143982Y442454D01*
X144092Y442516D01*
X144204Y442574D01*
X144317Y442629D01*
X144433Y442680D01*
X144550Y442728D01*
X144668Y442772D01*
X144788Y442812D01*
X144909Y442848D01*
X145031Y442881D01*
X145154Y442910D01*
X145278Y442934D01*
X145402Y442955D01*
X145527Y442972D01*
X145653Y442985D01*
X145779Y442994D01*
X145905Y442999D01*
X146032Y443000D01*
X146158Y442997D01*
X146284Y442990D01*
X146410Y442979D01*
X146535Y442964D01*
X146660Y442945D01*
X146784Y442922D01*
X146908Y442896D01*
X147030Y442865D01*
X147152Y442831D01*
X147272Y442792D01*
X147391Y442750D01*
X147509Y442705D01*
X147625Y442655D01*
X147740Y442602D01*
X147852Y442545D01*
X147963Y442485D01*
X148072Y442421D01*
X148179Y442354D01*
X148284Y442284D01*
X148387Y442210D01*
X148487Y442133D01*
X148585Y442053D01*
X148680Y441970D01*
X148772Y441884D01*
X148862Y441795D01*
X148949Y441703D01*
X149032Y441609D01*
X149113Y441512D01*
X149191Y441412D01*
X149266Y441310D01*
X149337Y441206D01*
X149405Y441099D01*
X149469Y440991D01*
X149530Y440880D01*
X149588Y440768D01*
X149642Y440654D01*
X149692Y440538D01*
X149739Y440421D01*
X149782Y440302D01*
X149821Y440182D01*
X149857Y440061D01*
X149888Y439938D01*
X149916Y439815D01*
X149940Y439691D01*
X149960Y439566D01*
X149976Y439441D01*
X149988Y439315D01*
X149996Y439189D01*
X150000Y439063D01*
X150000Y438937D01*
X149996Y438811D01*
X149988Y438685D01*
X149976Y438559D01*
X149960Y438434D01*
X149940Y438309D01*
X149916Y438185D01*
X149888Y438062D01*
X149857Y437939D01*
X149821Y437818D01*
X149782Y437698D01*
X149739Y437579D01*
X149692Y437462D01*
X149642Y437346D01*
X149588Y437232D01*
X149530Y437120D01*
X149469Y437009D01*
X149405Y436901D01*
X149337Y436794D01*
X149266Y436690D01*
X149191Y436588D01*
X149113Y436488D01*
X149032Y436391D01*
X148949Y436297D01*
X148862Y436205D01*
X148772Y436116D01*
X148680Y436030D01*
X148585Y435947D01*
X148487Y435867D01*
X148387Y435790D01*
X148284Y435716D01*
X148179Y435646D01*
X148072Y435579D01*
X147963Y435515D01*
X147852Y435455D01*
X147740Y435398D01*
X147625Y435345D01*
X147509Y435295D01*
X147391Y435250D01*
X147272Y435208D01*
X147152Y435169D01*
X147030Y435135D01*
X146908Y435104D01*
X146784Y435078D01*
X146660Y435055D01*
X146535Y435036D01*
X146410Y435021D01*
X146284Y435010D01*
X146158Y435003D01*
X146032Y435000D01*
X145905Y435001D01*
X145779Y435006D01*
X145653Y435015D01*
X145527Y435028D01*
X145402Y435045D01*
X145278Y435066D01*
X145154Y435090D01*
X145031Y435119D01*
X144909Y435152D01*
X144788Y435188D01*
X144668Y435228D01*
X144550Y435272D01*
X144433Y435320D01*
X144317Y435371D01*
X144204Y435426D01*
X144092Y435484D01*
X143982Y435546D01*
X143874Y435612D01*
X143768Y435681D01*
X143664Y435753D01*
X143563Y435828D01*
X143464Y435907D01*
X143368Y435988D01*
X143274Y436073D01*
X143183Y436160D01*
X143095Y436251D01*
X143009Y436344D01*
X142927Y436440D01*
X142848Y436538D01*
X142771Y436639D01*
X142698Y436742D01*
X142629Y436847D01*
X142563Y436955D01*
X142500Y437064D01*
X142440Y437176D01*
X142384Y437289D01*
X142332Y437404D01*
X142284Y437520D01*
X142239Y437639D01*
X142198Y437758D01*
X142160Y437879D01*
X142127Y438000D01*
X142097Y438123D01*
X142072Y438247D01*
X142050Y438371D01*
X142032Y438496D01*
X142018Y438622D01*
X142008Y438748D01*
X142002Y438874D01*
X142000Y439000D01*
X222000Y439000D02*
X222002Y439126D01*
X222008Y439252D01*
X222018Y439378D01*
X222032Y439504D01*
X222050Y439629D01*
X222072Y439753D01*
X222097Y439877D01*
X222127Y440000D01*
X222160Y440121D01*
X222198Y440242D01*
X222239Y440361D01*
X222284Y440480D01*
X222332Y440596D01*
X222384Y440711D01*
X222440Y440824D01*
X222500Y440936D01*
X222563Y441045D01*
X222629Y441153D01*
X222698Y441258D01*
X222771Y441361D01*
X222848Y441462D01*
X222927Y441560D01*
X223009Y441656D01*
X223095Y441749D01*
X223183Y441840D01*
X223274Y441927D01*
X223368Y442012D01*
X223464Y442093D01*
X223563Y442172D01*
X223664Y442247D01*
X223768Y442319D01*
X223874Y442388D01*
X223982Y442454D01*
X224092Y442516D01*
X224204Y442574D01*
X224317Y442629D01*
X224433Y442680D01*
X224550Y442728D01*
X224668Y442772D01*
X224788Y442812D01*
X224909Y442848D01*
X225031Y442881D01*
X225154Y442910D01*
X225278Y442934D01*
X225402Y442955D01*
X225527Y442972D01*
X225653Y442985D01*
X225779Y442994D01*
X225905Y442999D01*
X226032Y443000D01*
X226158Y442997D01*
X226284Y442990D01*
X226410Y442979D01*
X226535Y442964D01*
X226660Y442945D01*
X226784Y442922D01*
X226908Y442896D01*
X227030Y442865D01*
X227152Y442831D01*
X227272Y442792D01*
X227391Y442750D01*
X227509Y442705D01*
X227625Y442655D01*
X227740Y442602D01*
X227852Y442545D01*
X227963Y442485D01*
X228072Y442421D01*
X228179Y442354D01*
X228284Y442284D01*
X228387Y442210D01*
X228487Y442133D01*
X228585Y442053D01*
X228680Y441970D01*
X228772Y441884D01*
X228862Y441795D01*
X228949Y441703D01*
X229032Y441609D01*
X229113Y441512D01*
X229191Y441412D01*
X229266Y441310D01*
X229337Y441206D01*
X229405Y441099D01*
X229469Y440991D01*
X229530Y440880D01*
X229588Y440768D01*
X229642Y440654D01*
X229692Y440538D01*
X229739Y440421D01*
X229782Y440302D01*
X229821Y440182D01*
X229857Y440061D01*
X229888Y439938D01*
X229916Y439815D01*
X229940Y439691D01*
X229960Y439566D01*
X229976Y439441D01*
X229988Y439315D01*
X229996Y439189D01*
X230000Y439063D01*
X230000Y438937D01*
X229996Y438811D01*
X229988Y438685D01*
X229976Y438559D01*
X229960Y438434D01*
X229940Y438309D01*
X229916Y438185D01*
X229888Y438062D01*
X229857Y437939D01*
X229821Y437818D01*
X229782Y437698D01*
X229739Y437579D01*
X229692Y437462D01*
X229642Y437346D01*
X229588Y437232D01*
X229530Y437120D01*
X229469Y437009D01*
X229405Y436901D01*
X229337Y436794D01*
X229266Y436690D01*
X229191Y436588D01*
X229113Y436488D01*
X229032Y436391D01*
X228949Y436297D01*
X228862Y436205D01*
X228772Y436116D01*
X228680Y436030D01*
X228585Y435947D01*
X228487Y435867D01*
X228387Y435790D01*
X228284Y435716D01*
X228179Y435646D01*
X228072Y435579D01*
X227963Y435515D01*
X227852Y435455D01*
X227740Y435398D01*
X227625Y435345D01*
X227509Y435295D01*
X227391Y435250D01*
X227272Y435208D01*
X227152Y435169D01*
X227030Y435135D01*
X226908Y435104D01*
X226784Y435078D01*
X226660Y435055D01*
X226535Y435036D01*
X226410Y435021D01*
X226284Y435010D01*
X226158Y435003D01*
X226032Y435000D01*
X225905Y435001D01*
X225779Y435006D01*
X225653Y435015D01*
X225527Y435028D01*
X225402Y435045D01*
X225278Y435066D01*
X225154Y435090D01*
X225031Y435119D01*
X224909Y435152D01*
X224788Y435188D01*
X224668Y435228D01*
X224550Y435272D01*
X224433Y435320D01*
X224317Y435371D01*
X224204Y435426D01*
X224092Y435484D01*
X223982Y435546D01*
X223874Y435612D01*
X223768Y435681D01*
X223664Y435753D01*
X223563Y435828D01*
X223464Y435907D01*
X223368Y435988D01*
X223274Y436073D01*
X223183Y436160D01*
X223095Y436251D01*
X223009Y436344D01*
X222927Y436440D01*
X222848Y436538D01*
X222771Y436639D01*
X222698Y436742D01*
X222629Y436847D01*
X222563Y436955D01*
X222500Y437064D01*
X222440Y437176D01*
X222384Y437289D01*
X222332Y437404D01*
X222284Y437520D01*
X222239Y437639D01*
X222198Y437758D01*
X222160Y437879D01*
X222127Y438000D01*
X222097Y438123D01*
X222072Y438247D01*
X222050Y438371D01*
X222032Y438496D01*
X222018Y438622D01*
X222008Y438748D01*
X222002Y438874D01*
X222000Y439000D01*
D11*
X10000Y72000D02*
X30000Y72000D01*
X30000Y0D01*
X140400Y0D01*
X140496Y4D01*
X140591Y17D01*
X140685Y37D01*
X140776Y66D01*
X140865Y103D01*
X140950Y147D01*
X141031Y199D01*
X141107Y257D01*
X141178Y322D01*
X141243Y393D01*
X141301Y469D01*
X141353Y550D01*
X141397Y635D01*
X141434Y724D01*
X141463Y815D01*
X141483Y909D01*
X141496Y1004D01*
X141500Y1100D01*
X141500Y89600D01*
X141505Y89722D01*
X141521Y89843D01*
X141548Y89962D01*
X141584Y90079D01*
X141631Y90192D01*
X141688Y90300D01*
X141753Y90403D01*
X141828Y90500D01*
X141910Y90590D01*
X142000Y90672D01*
X142097Y90747D01*
X142200Y90812D01*
X142308Y90869D01*
X142421Y90916D01*
X142538Y90952D01*
X142657Y90979D01*
X142778Y90995D01*
X142900Y91000D01*
X156100Y91000D01*
X156222Y90995D01*
X156343Y90979D01*
X156462Y90952D01*
X156579Y90916D01*
X156692Y90869D01*
X156800Y90812D01*
X156903Y90747D01*
X157000Y90672D01*
X157090Y90590D01*
X157172Y90500D01*
X157247Y90403D01*
X157312Y90300D01*
X157369Y90192D01*
X157416Y90079D01*
X157452Y89962D01*
X157479Y89843D01*
X157495Y89722D01*
X157500Y89600D01*
X157500Y1100D01*
X157504Y1004D01*
X157517Y909D01*
X157537Y815D01*
X157566Y724D01*
X157603Y635D01*
X157647Y550D01*
X157699Y469D01*
X157757Y393D01*
X157822Y322D01*
X157893Y257D01*
X157969Y199D01*
X158050Y147D01*
X158135Y103D01*
X158224Y66D01*
X158315Y37D01*
X158409Y17D01*
X158504Y4D01*
X158600Y0D01*
X245400Y0D01*
X245496Y4D01*
X245591Y17D01*
X245685Y37D01*
X245776Y66D01*
X245865Y103D01*
X245950Y147D01*
X246031Y199D01*
X246107Y257D01*
X246178Y322D01*
X246243Y393D01*
X246301Y469D01*
X246353Y550D01*
X246397Y635D01*
X246434Y724D01*
X246463Y815D01*
X246483Y909D01*
X246496Y1004D01*
X246500Y1100D01*
X246500Y89600D01*
X246505Y89722D01*
X246521Y89843D01*
X246548Y89962D01*
X246584Y90079D01*
X246631Y90192D01*
X246688Y90300D01*
X246753Y90403D01*
X246828Y90500D01*
X246910Y90590D01*
X247000Y90672D01*
X247097Y90747D01*
X247200Y90812D01*
X247308Y90869D01*
X247421Y90916D01*
X247538Y90952D01*
X247657Y90979D01*
X247778Y90995D01*
X247900Y91000D01*
X261100Y91000D01*
X261222Y90995D01*
X261343Y90979D01*
X261462Y90952D01*
X261579Y90916D01*
X261692Y90869D01*
X261800Y90812D01*
X261903Y90747D01*
X262000Y90672D01*
X262090Y90590D01*
X262172Y90500D01*
X262247Y90403D01*
X262312Y90300D01*
X262369Y90192D01*
X262416Y90079D01*
X262452Y89962D01*
X262479Y89843D01*
X262495Y89722D01*
X262500Y89600D01*
X262500Y1100D01*
X262504Y1004D01*
X262517Y909D01*
X262537Y815D01*
X262566Y724D01*
X262603Y635D01*
X262647Y550D01*
X262699Y469D01*
X262757Y393D01*
X262822Y322D01*
X262893Y257D01*
X262969Y199D01*
X263050Y147D01*
X263135Y103D01*
X263224Y66D01*
X263315Y37D01*
X263409Y17D01*
X263504Y4D01*
X263600Y0D01*
X327000Y0D01*
X327000Y72000D01*
X345000Y72000D01*
X345000Y415000D01*
X332000Y415000D01*
X332000Y453000D01*
X25000Y453000D01*
X25000Y415000D01*
X10000Y415000D01*
X10000Y72000D01*
X146262Y443000D02*
X146782Y442932D01*
X147289Y442796D01*
X147773Y442595D01*
X148227Y442333D01*
X148643Y442014D01*
X149014Y441643D01*
X149333Y441227D01*
X149595Y440773D01*
X149796Y440289D01*
X149932Y439782D01*
X150000Y439262D01*
X150000Y438738D01*
X149932Y438218D01*
X149796Y437711D01*
X149595Y437227D01*
X149333Y436773D01*
X149014Y436357D01*
X148643Y435986D01*
X148227Y435667D01*
X147773Y435405D01*
X147289Y435204D01*
X146782Y435068D01*
X146262Y435000D01*
X145738Y435000D01*
X145218Y435068D01*
X144711Y435204D01*
X144227Y435405D01*
X143773Y435667D01*
X143357Y435986D01*
X142986Y436357D01*
X142667Y436773D01*
X142405Y437227D01*
X142204Y437711D01*
X142068Y438218D01*
X142000Y438738D01*
X142000Y439262D01*
X142068Y439782D01*
X142204Y440289D01*
X142405Y440773D01*
X142667Y441227D01*
X142986Y441643D01*
X143357Y442014D01*
X143773Y442333D01*
X144227Y442595D01*
X144711Y442796D01*
X145218Y442932D01*
X145738Y443000D01*
X146262Y443000D01*
X226262Y443000D02*
X226782Y442932D01*
X227289Y442796D01*
X227773Y442595D01*
X228227Y442333D01*
X228643Y442014D01*
X229014Y441643D01*
X229333Y441227D01*
X229595Y440773D01*
X229796Y440289D01*
X229932Y439782D01*
X230000Y439262D01*
X230000Y438738D01*
X229932Y438218D01*
X229796Y437711D01*
X229595Y437227D01*
X229333Y436773D01*
X229014Y436357D01*
X228643Y435986D01*
X228227Y435667D01*
X227773Y435405D01*
X227289Y435204D01*
X226782Y435068D01*
X226262Y435000D01*
X225738Y435000D01*
X225218Y435068D01*
X224711Y435204D01*
X224227Y435405D01*
X223773Y435667D01*
X223357Y435986D01*
X222986Y436357D01*
X222667Y436773D01*
X222405Y437227D01*
X222204Y437711D01*
X222068Y438218D01*
X222000Y438738D01*
X222000Y439262D01*
X222068Y439782D01*
X222204Y440289D01*
X222405Y440773D01*
X222667Y441227D01*
X222986Y441643D01*
X223357Y442014D01*
X223773Y442333D01*
X224227Y442595D01*
X224711Y442796D01*
X225218Y442932D01*
X225738Y443000D01*
X226262Y443000D01*
M02*
