G04 EAGLE Gerber RS-274X export*
G75*
%MOMM*%
%FSLAX34Y34*%
%LPD*%
%INTop Copper*%
%IPPOS*%
%AMOC8*
5,1,8,0,0,1.08239X$1,22.5*%
G01*
%ADD10R,1.500000X4.700000*%
%ADD11R,1.500000X5.500000*%
%ADD12R,1.400000X5.500000*%
%ADD13R,0.800000X1.800000*%
%ADD14R,1.150000X2.100000*%
%ADD15R,1.400000X2.200000*%
%ADD16R,1.800000X1.600000*%
%ADD17R,1.200000X1.200000*%
%ADD18R,1.200000X0.800000*%
%ADD19R,1.400000X1.000000*%
%ADD20R,0.800000X1.200000*%
%ADD21C,0.812800*%
%ADD22C,0.406400*%
%ADD23C,0.706400*%
%ADD24C,0.203200*%
%ADD25C,0.304800*%

G36*
X296218Y59242D02*
X296218Y59242D01*
X296237Y59240D01*
X296339Y59262D01*
X296441Y59278D01*
X296458Y59288D01*
X296478Y59292D01*
X296567Y59345D01*
X296658Y59394D01*
X296672Y59408D01*
X296689Y59418D01*
X296756Y59497D01*
X296828Y59572D01*
X296836Y59590D01*
X296849Y59605D01*
X296888Y59701D01*
X296931Y59795D01*
X296933Y59815D01*
X296941Y59833D01*
X296959Y60000D01*
X296959Y113574D01*
X296945Y113664D01*
X296937Y113755D01*
X296925Y113785D01*
X296920Y113817D01*
X296877Y113898D01*
X296841Y113981D01*
X296815Y114014D01*
X296804Y114034D01*
X296781Y114056D01*
X296736Y114112D01*
X293943Y116905D01*
X293943Y121095D01*
X296905Y124057D01*
X301095Y124057D01*
X304057Y121095D01*
X304057Y116905D01*
X302264Y115112D01*
X302211Y115038D01*
X302151Y114969D01*
X302139Y114939D01*
X302120Y114913D01*
X302093Y114826D01*
X302059Y114741D01*
X302055Y114700D01*
X302048Y114678D01*
X302049Y114645D01*
X302041Y114574D01*
X302041Y60000D01*
X302044Y59980D01*
X302042Y59961D01*
X302064Y59859D01*
X302080Y59757D01*
X302090Y59740D01*
X302094Y59720D01*
X302147Y59631D01*
X302196Y59540D01*
X302210Y59526D01*
X302220Y59509D01*
X302299Y59442D01*
X302374Y59370D01*
X302392Y59362D01*
X302407Y59349D01*
X302503Y59310D01*
X302597Y59267D01*
X302617Y59265D01*
X302635Y59257D01*
X302802Y59239D01*
X316078Y59239D01*
X316098Y59242D01*
X316117Y59240D01*
X316219Y59262D01*
X316321Y59278D01*
X316338Y59288D01*
X316358Y59292D01*
X316447Y59345D01*
X316538Y59394D01*
X316552Y59408D01*
X316569Y59418D01*
X316636Y59497D01*
X316708Y59572D01*
X316716Y59590D01*
X316729Y59605D01*
X316768Y59701D01*
X316811Y59795D01*
X316813Y59815D01*
X316821Y59833D01*
X316839Y60000D01*
X316839Y74021D01*
X318386Y77756D01*
X321244Y80614D01*
X324979Y82161D01*
X334078Y82161D01*
X334098Y82164D01*
X334117Y82162D01*
X334219Y82184D01*
X334321Y82200D01*
X334338Y82210D01*
X334358Y82214D01*
X334447Y82267D01*
X334538Y82316D01*
X334552Y82330D01*
X334569Y82340D01*
X334636Y82419D01*
X334708Y82494D01*
X334716Y82512D01*
X334729Y82527D01*
X334768Y82623D01*
X334811Y82717D01*
X334813Y82737D01*
X334821Y82755D01*
X334839Y82922D01*
X334839Y404078D01*
X334836Y404098D01*
X334838Y404117D01*
X334816Y404219D01*
X334800Y404321D01*
X334790Y404338D01*
X334786Y404358D01*
X334733Y404447D01*
X334684Y404538D01*
X334670Y404552D01*
X334660Y404569D01*
X334581Y404636D01*
X334506Y404708D01*
X334488Y404716D01*
X334473Y404729D01*
X334377Y404768D01*
X334283Y404811D01*
X334263Y404813D01*
X334245Y404821D01*
X334078Y404839D01*
X329979Y404839D01*
X326244Y406386D01*
X323386Y409244D01*
X321839Y412979D01*
X321839Y442078D01*
X321836Y442098D01*
X321838Y442117D01*
X321816Y442219D01*
X321800Y442321D01*
X321790Y442338D01*
X321786Y442358D01*
X321733Y442447D01*
X321684Y442538D01*
X321670Y442552D01*
X321660Y442569D01*
X321581Y442636D01*
X321506Y442708D01*
X321488Y442716D01*
X321473Y442729D01*
X321377Y442768D01*
X321283Y442811D01*
X321263Y442813D01*
X321245Y442821D01*
X321078Y442839D01*
X312262Y442839D01*
X312242Y442836D01*
X312223Y442838D01*
X312121Y442816D01*
X312019Y442800D01*
X312002Y442790D01*
X311982Y442786D01*
X311893Y442733D01*
X311802Y442684D01*
X311788Y442670D01*
X311771Y442660D01*
X311704Y442581D01*
X311633Y442506D01*
X311624Y442488D01*
X311611Y442473D01*
X311572Y442377D01*
X311529Y442283D01*
X311527Y442263D01*
X311519Y442245D01*
X311501Y442078D01*
X311501Y441999D01*
X311499Y441999D01*
X311499Y442078D01*
X311496Y442098D01*
X311498Y442117D01*
X311476Y442219D01*
X311459Y442321D01*
X311450Y442338D01*
X311446Y442358D01*
X311393Y442447D01*
X311344Y442538D01*
X311330Y442552D01*
X311320Y442569D01*
X311241Y442636D01*
X311166Y442708D01*
X311148Y442716D01*
X311133Y442729D01*
X311037Y442768D01*
X310943Y442811D01*
X310923Y442813D01*
X310905Y442821D01*
X310738Y442839D01*
X298786Y442839D01*
X298766Y442836D01*
X298747Y442838D01*
X298645Y442816D01*
X298543Y442800D01*
X298526Y442790D01*
X298506Y442786D01*
X298417Y442733D01*
X298326Y442684D01*
X298312Y442670D01*
X298295Y442660D01*
X298228Y442581D01*
X298156Y442506D01*
X298148Y442488D01*
X298135Y442473D01*
X298096Y442377D01*
X298053Y442283D01*
X298051Y442263D01*
X298043Y442245D01*
X298025Y442078D01*
X298025Y435368D01*
X297132Y434475D01*
X293802Y434475D01*
X293782Y434472D01*
X293763Y434474D01*
X293661Y434452D01*
X293559Y434436D01*
X293542Y434426D01*
X293522Y434422D01*
X293433Y434369D01*
X293342Y434320D01*
X293328Y434306D01*
X293311Y434296D01*
X293244Y434217D01*
X293172Y434142D01*
X293164Y434124D01*
X293151Y434109D01*
X293112Y434013D01*
X293069Y433919D01*
X293067Y433899D01*
X293059Y433881D01*
X293041Y433714D01*
X293041Y420286D01*
X293044Y420266D01*
X293042Y420247D01*
X293064Y420145D01*
X293080Y420043D01*
X293090Y420026D01*
X293094Y420006D01*
X293147Y419917D01*
X293196Y419826D01*
X293210Y419812D01*
X293220Y419795D01*
X293299Y419728D01*
X293374Y419656D01*
X293392Y419648D01*
X293407Y419635D01*
X293503Y419596D01*
X293597Y419553D01*
X293617Y419551D01*
X293635Y419543D01*
X293802Y419525D01*
X297632Y419525D01*
X298525Y418632D01*
X298525Y409368D01*
X297632Y408475D01*
X284368Y408475D01*
X283475Y409368D01*
X283475Y418632D01*
X284368Y419525D01*
X287198Y419525D01*
X287218Y419528D01*
X287237Y419526D01*
X287339Y419548D01*
X287441Y419564D01*
X287458Y419574D01*
X287478Y419578D01*
X287567Y419631D01*
X287658Y419680D01*
X287672Y419694D01*
X287689Y419704D01*
X287756Y419783D01*
X287828Y419858D01*
X287836Y419876D01*
X287849Y419891D01*
X287888Y419987D01*
X287931Y420081D01*
X287933Y420101D01*
X287941Y420119D01*
X287959Y420286D01*
X287959Y433714D01*
X287956Y433734D01*
X287958Y433753D01*
X287936Y433855D01*
X287920Y433957D01*
X287910Y433974D01*
X287906Y433994D01*
X287853Y434083D01*
X287804Y434174D01*
X287790Y434188D01*
X287780Y434205D01*
X287701Y434272D01*
X287626Y434344D01*
X287608Y434352D01*
X287593Y434365D01*
X287497Y434404D01*
X287403Y434447D01*
X287383Y434449D01*
X287365Y434457D01*
X287198Y434475D01*
X283868Y434475D01*
X282975Y435368D01*
X282975Y442078D01*
X282972Y442098D01*
X282974Y442117D01*
X282952Y442219D01*
X282936Y442321D01*
X282926Y442338D01*
X282922Y442358D01*
X282869Y442447D01*
X282820Y442538D01*
X282806Y442552D01*
X282796Y442569D01*
X282717Y442636D01*
X282642Y442708D01*
X282624Y442716D01*
X282609Y442729D01*
X282513Y442768D01*
X282419Y442811D01*
X282399Y442813D01*
X282381Y442821D01*
X282214Y442839D01*
X265802Y442839D01*
X265782Y442836D01*
X265763Y442838D01*
X265661Y442816D01*
X265559Y442800D01*
X265542Y442790D01*
X265522Y442786D01*
X265433Y442733D01*
X265342Y442684D01*
X265328Y442670D01*
X265311Y442660D01*
X265244Y442581D01*
X265172Y442506D01*
X265164Y442488D01*
X265151Y442473D01*
X265112Y442377D01*
X265069Y442283D01*
X265067Y442263D01*
X265059Y442245D01*
X265041Y442078D01*
X265041Y439023D01*
X256262Y439023D01*
X256242Y439020D01*
X256223Y439022D01*
X256121Y439000D01*
X256019Y438983D01*
X256002Y438974D01*
X255982Y438970D01*
X255893Y438917D01*
X255802Y438868D01*
X255788Y438854D01*
X255771Y438844D01*
X255704Y438765D01*
X255633Y438690D01*
X255624Y438672D01*
X255611Y438657D01*
X255572Y438561D01*
X255529Y438467D01*
X255527Y438447D01*
X255519Y438429D01*
X255501Y438262D01*
X255501Y437499D01*
X255499Y437499D01*
X255499Y438262D01*
X255496Y438282D01*
X255498Y438301D01*
X255476Y438403D01*
X255459Y438505D01*
X255450Y438522D01*
X255446Y438542D01*
X255393Y438631D01*
X255344Y438722D01*
X255330Y438736D01*
X255320Y438753D01*
X255241Y438820D01*
X255166Y438891D01*
X255148Y438900D01*
X255133Y438913D01*
X255037Y438952D01*
X254943Y438995D01*
X254923Y438997D01*
X254905Y439005D01*
X254738Y439023D01*
X245959Y439023D01*
X245959Y442078D01*
X245956Y442098D01*
X245958Y442117D01*
X245936Y442219D01*
X245920Y442321D01*
X245910Y442338D01*
X245906Y442358D01*
X245853Y442447D01*
X245804Y442538D01*
X245790Y442552D01*
X245780Y442569D01*
X245701Y442636D01*
X245626Y442708D01*
X245608Y442716D01*
X245593Y442729D01*
X245497Y442768D01*
X245403Y442811D01*
X245383Y442813D01*
X245365Y442821D01*
X245198Y442839D01*
X240876Y442839D01*
X240831Y442832D01*
X240785Y442834D01*
X240710Y442812D01*
X240634Y442800D01*
X240593Y442778D01*
X240549Y442765D01*
X240485Y442721D01*
X240416Y442684D01*
X240385Y442651D01*
X240347Y442625D01*
X240301Y442563D01*
X240247Y442506D01*
X240228Y442464D01*
X240200Y442427D01*
X240176Y442353D01*
X240143Y442283D01*
X240138Y442237D01*
X240124Y442194D01*
X240125Y442116D01*
X240116Y442039D01*
X240126Y441994D01*
X240126Y441948D01*
X240161Y441830D01*
X240161Y436183D01*
X238005Y430979D01*
X234021Y426995D01*
X228817Y424839D01*
X223183Y424839D01*
X217979Y426995D01*
X213995Y430979D01*
X211839Y436183D01*
X211839Y441836D01*
X211857Y441873D01*
X211865Y441950D01*
X211883Y442026D01*
X211879Y442072D01*
X211884Y442117D01*
X211867Y442194D01*
X211860Y442271D01*
X211841Y442313D01*
X211832Y442358D01*
X211792Y442425D01*
X211760Y442496D01*
X211729Y442530D01*
X211705Y442569D01*
X211646Y442620D01*
X211594Y442677D01*
X211553Y442699D01*
X211518Y442729D01*
X211446Y442758D01*
X211378Y442795D01*
X211333Y442804D01*
X211290Y442821D01*
X211155Y442836D01*
X211136Y442839D01*
X211131Y442838D01*
X211124Y442839D01*
X160876Y442839D01*
X160831Y442832D01*
X160785Y442834D01*
X160710Y442812D01*
X160634Y442800D01*
X160593Y442778D01*
X160549Y442765D01*
X160485Y442721D01*
X160416Y442684D01*
X160385Y442651D01*
X160347Y442625D01*
X160301Y442563D01*
X160247Y442506D01*
X160228Y442464D01*
X160200Y442427D01*
X160176Y442353D01*
X160143Y442283D01*
X160138Y442237D01*
X160124Y442194D01*
X160125Y442116D01*
X160116Y442039D01*
X160126Y441994D01*
X160126Y441948D01*
X160161Y441830D01*
X160161Y436183D01*
X158005Y430979D01*
X154021Y426995D01*
X148817Y424839D01*
X143183Y424839D01*
X137979Y426995D01*
X133995Y430979D01*
X131839Y436183D01*
X131839Y441836D01*
X131857Y441873D01*
X131865Y441950D01*
X131883Y442026D01*
X131879Y442072D01*
X131884Y442117D01*
X131867Y442194D01*
X131860Y442271D01*
X131841Y442313D01*
X131832Y442358D01*
X131792Y442425D01*
X131760Y442496D01*
X131729Y442530D01*
X131705Y442569D01*
X131646Y442620D01*
X131594Y442677D01*
X131553Y442699D01*
X131518Y442729D01*
X131446Y442758D01*
X131378Y442795D01*
X131333Y442804D01*
X131290Y442821D01*
X131155Y442836D01*
X131136Y442839D01*
X131131Y442838D01*
X131124Y442839D01*
X105802Y442839D01*
X105782Y442836D01*
X105763Y442838D01*
X105661Y442816D01*
X105559Y442800D01*
X105542Y442790D01*
X105522Y442786D01*
X105433Y442733D01*
X105342Y442684D01*
X105328Y442670D01*
X105311Y442660D01*
X105244Y442581D01*
X105172Y442506D01*
X105164Y442488D01*
X105151Y442473D01*
X105112Y442377D01*
X105069Y442283D01*
X105067Y442263D01*
X105059Y442245D01*
X105041Y442078D01*
X105041Y439023D01*
X96262Y439023D01*
X96242Y439020D01*
X96223Y439022D01*
X96121Y439000D01*
X96019Y438983D01*
X96002Y438974D01*
X95982Y438970D01*
X95893Y438917D01*
X95802Y438868D01*
X95788Y438854D01*
X95771Y438844D01*
X95704Y438765D01*
X95633Y438690D01*
X95624Y438672D01*
X95611Y438657D01*
X95572Y438561D01*
X95529Y438467D01*
X95527Y438447D01*
X95519Y438429D01*
X95501Y438262D01*
X95501Y437499D01*
X95499Y437499D01*
X95499Y438262D01*
X95496Y438282D01*
X95498Y438301D01*
X95476Y438403D01*
X95459Y438505D01*
X95450Y438522D01*
X95446Y438542D01*
X95393Y438631D01*
X95344Y438722D01*
X95330Y438736D01*
X95320Y438753D01*
X95241Y438820D01*
X95166Y438891D01*
X95148Y438900D01*
X95133Y438913D01*
X95037Y438952D01*
X94943Y438995D01*
X94923Y438997D01*
X94905Y439005D01*
X94738Y439023D01*
X85959Y439023D01*
X85959Y442078D01*
X85956Y442098D01*
X85958Y442117D01*
X85936Y442219D01*
X85920Y442321D01*
X85910Y442338D01*
X85906Y442358D01*
X85853Y442447D01*
X85804Y442538D01*
X85790Y442552D01*
X85780Y442569D01*
X85701Y442636D01*
X85626Y442708D01*
X85608Y442716D01*
X85593Y442729D01*
X85497Y442768D01*
X85403Y442811D01*
X85383Y442813D01*
X85365Y442821D01*
X85198Y442839D01*
X73786Y442839D01*
X73766Y442836D01*
X73747Y442838D01*
X73645Y442816D01*
X73543Y442800D01*
X73526Y442790D01*
X73506Y442786D01*
X73417Y442733D01*
X73326Y442684D01*
X73312Y442670D01*
X73295Y442660D01*
X73228Y442581D01*
X73156Y442506D01*
X73148Y442488D01*
X73135Y442473D01*
X73096Y442377D01*
X73053Y442283D01*
X73051Y442263D01*
X73043Y442245D01*
X73025Y442078D01*
X73025Y435368D01*
X72132Y434475D01*
X68302Y434475D01*
X68282Y434472D01*
X68263Y434474D01*
X68161Y434452D01*
X68059Y434436D01*
X68042Y434426D01*
X68022Y434422D01*
X67933Y434369D01*
X67842Y434320D01*
X67828Y434306D01*
X67811Y434296D01*
X67744Y434217D01*
X67672Y434142D01*
X67664Y434124D01*
X67651Y434109D01*
X67612Y434013D01*
X67569Y433919D01*
X67567Y433899D01*
X67559Y433881D01*
X67541Y433714D01*
X67541Y415286D01*
X67544Y415266D01*
X67542Y415247D01*
X67564Y415145D01*
X67580Y415043D01*
X67590Y415026D01*
X67594Y415006D01*
X67647Y414917D01*
X67696Y414826D01*
X67710Y414812D01*
X67720Y414795D01*
X67799Y414728D01*
X67874Y414656D01*
X67892Y414648D01*
X67907Y414635D01*
X68003Y414596D01*
X68097Y414553D01*
X68117Y414551D01*
X68135Y414543D01*
X68302Y414525D01*
X71632Y414525D01*
X72525Y413632D01*
X72525Y404368D01*
X71632Y403475D01*
X58368Y403475D01*
X57475Y404368D01*
X57475Y413632D01*
X58368Y414525D01*
X61698Y414525D01*
X61718Y414528D01*
X61737Y414526D01*
X61839Y414548D01*
X61941Y414564D01*
X61958Y414574D01*
X61978Y414578D01*
X62067Y414631D01*
X62158Y414680D01*
X62172Y414694D01*
X62189Y414704D01*
X62256Y414783D01*
X62328Y414858D01*
X62336Y414876D01*
X62349Y414891D01*
X62388Y414987D01*
X62431Y415081D01*
X62433Y415101D01*
X62441Y415119D01*
X62459Y415286D01*
X62459Y433714D01*
X62456Y433734D01*
X62458Y433753D01*
X62436Y433855D01*
X62420Y433957D01*
X62410Y433974D01*
X62406Y433994D01*
X62353Y434083D01*
X62304Y434174D01*
X62290Y434188D01*
X62280Y434205D01*
X62201Y434272D01*
X62126Y434344D01*
X62108Y434352D01*
X62093Y434365D01*
X61997Y434404D01*
X61903Y434447D01*
X61883Y434449D01*
X61865Y434457D01*
X61698Y434475D01*
X58868Y434475D01*
X57975Y435368D01*
X57975Y442078D01*
X57972Y442098D01*
X57974Y442117D01*
X57952Y442219D01*
X57936Y442321D01*
X57926Y442338D01*
X57922Y442358D01*
X57869Y442447D01*
X57820Y442538D01*
X57806Y442552D01*
X57796Y442569D01*
X57717Y442636D01*
X57642Y442708D01*
X57624Y442716D01*
X57609Y442729D01*
X57513Y442768D01*
X57419Y442811D01*
X57399Y442813D01*
X57381Y442821D01*
X57214Y442839D01*
X52786Y442839D01*
X52766Y442836D01*
X52747Y442838D01*
X52645Y442816D01*
X52543Y442800D01*
X52526Y442790D01*
X52506Y442786D01*
X52417Y442733D01*
X52326Y442684D01*
X52312Y442670D01*
X52295Y442660D01*
X52228Y442581D01*
X52156Y442506D01*
X52148Y442488D01*
X52135Y442473D01*
X52096Y442377D01*
X52053Y442283D01*
X52051Y442263D01*
X52043Y442245D01*
X52025Y442078D01*
X52025Y435368D01*
X51132Y434475D01*
X47802Y434475D01*
X47782Y434472D01*
X47763Y434474D01*
X47661Y434452D01*
X47559Y434436D01*
X47542Y434426D01*
X47522Y434422D01*
X47433Y434369D01*
X47342Y434320D01*
X47328Y434306D01*
X47311Y434296D01*
X47244Y434217D01*
X47172Y434142D01*
X47164Y434124D01*
X47151Y434109D01*
X47112Y434013D01*
X47069Y433919D01*
X47067Y433899D01*
X47059Y433881D01*
X47041Y433714D01*
X47041Y378926D01*
X47055Y378836D01*
X47063Y378745D01*
X47075Y378715D01*
X47080Y378683D01*
X47123Y378602D01*
X47159Y378519D01*
X47185Y378486D01*
X47196Y378466D01*
X47219Y378444D01*
X47264Y378388D01*
X49557Y376095D01*
X49557Y372852D01*
X49559Y372841D01*
X49558Y372834D01*
X49565Y372800D01*
X49571Y372762D01*
X49579Y372671D01*
X49591Y372641D01*
X49596Y372609D01*
X49639Y372528D01*
X49675Y372444D01*
X49701Y372412D01*
X49712Y372392D01*
X49735Y372369D01*
X49780Y372313D01*
X68541Y353552D01*
X68541Y334286D01*
X68544Y334266D01*
X68542Y334247D01*
X68564Y334145D01*
X68580Y334043D01*
X68590Y334026D01*
X68594Y334006D01*
X68647Y333917D01*
X68696Y333826D01*
X68710Y333812D01*
X68720Y333795D01*
X68799Y333728D01*
X68874Y333656D01*
X68892Y333648D01*
X68907Y333635D01*
X69003Y333596D01*
X69097Y333553D01*
X69117Y333551D01*
X69135Y333543D01*
X69302Y333525D01*
X72632Y333525D01*
X73525Y332632D01*
X73525Y323368D01*
X72632Y322475D01*
X59368Y322475D01*
X58475Y323368D01*
X58475Y332632D01*
X59368Y333525D01*
X62698Y333525D01*
X62718Y333528D01*
X62737Y333526D01*
X62839Y333548D01*
X62941Y333564D01*
X62958Y333574D01*
X62978Y333578D01*
X63067Y333631D01*
X63158Y333680D01*
X63172Y333694D01*
X63189Y333704D01*
X63256Y333783D01*
X63328Y333858D01*
X63336Y333876D01*
X63349Y333891D01*
X63388Y333987D01*
X63431Y334081D01*
X63433Y334101D01*
X63441Y334119D01*
X63459Y334286D01*
X63459Y351132D01*
X63445Y351222D01*
X63437Y351313D01*
X63425Y351343D01*
X63420Y351375D01*
X63377Y351456D01*
X63341Y351540D01*
X63315Y351572D01*
X63304Y351592D01*
X63281Y351615D01*
X63236Y351671D01*
X46187Y368720D01*
X46113Y368773D01*
X46043Y368833D01*
X46013Y368845D01*
X45987Y368864D01*
X45900Y368891D01*
X45815Y368925D01*
X45774Y368929D01*
X45752Y368936D01*
X45720Y368935D01*
X45648Y368943D01*
X42405Y368943D01*
X39443Y371905D01*
X39443Y376095D01*
X41736Y378388D01*
X41789Y378462D01*
X41849Y378531D01*
X41861Y378561D01*
X41880Y378587D01*
X41907Y378674D01*
X41941Y378759D01*
X41945Y378800D01*
X41952Y378822D01*
X41951Y378855D01*
X41959Y378926D01*
X41959Y433714D01*
X41956Y433734D01*
X41958Y433753D01*
X41936Y433855D01*
X41920Y433957D01*
X41910Y433974D01*
X41906Y433994D01*
X41853Y434083D01*
X41804Y434174D01*
X41790Y434188D01*
X41780Y434205D01*
X41701Y434272D01*
X41626Y434344D01*
X41608Y434352D01*
X41593Y434365D01*
X41497Y434404D01*
X41403Y434447D01*
X41383Y434449D01*
X41365Y434457D01*
X41198Y434475D01*
X37868Y434475D01*
X36975Y435368D01*
X36975Y442078D01*
X36972Y442098D01*
X36974Y442117D01*
X36952Y442219D01*
X36936Y442321D01*
X36926Y442338D01*
X36922Y442358D01*
X36869Y442447D01*
X36820Y442538D01*
X36806Y442552D01*
X36796Y442569D01*
X36717Y442636D01*
X36642Y442708D01*
X36624Y442716D01*
X36609Y442729D01*
X36513Y442768D01*
X36419Y442811D01*
X36399Y442813D01*
X36381Y442821D01*
X36214Y442839D01*
X35922Y442839D01*
X35902Y442836D01*
X35883Y442838D01*
X35781Y442816D01*
X35679Y442800D01*
X35662Y442790D01*
X35642Y442786D01*
X35553Y442733D01*
X35462Y442684D01*
X35448Y442670D01*
X35431Y442660D01*
X35364Y442581D01*
X35292Y442506D01*
X35284Y442488D01*
X35271Y442473D01*
X35232Y442377D01*
X35189Y442283D01*
X35187Y442263D01*
X35179Y442245D01*
X35161Y442078D01*
X35161Y412979D01*
X33614Y409244D01*
X30756Y406386D01*
X27021Y404839D01*
X20922Y404839D01*
X20902Y404836D01*
X20883Y404838D01*
X20781Y404816D01*
X20679Y404800D01*
X20662Y404790D01*
X20642Y404786D01*
X20553Y404733D01*
X20462Y404684D01*
X20448Y404670D01*
X20431Y404660D01*
X20364Y404581D01*
X20292Y404506D01*
X20284Y404488D01*
X20271Y404473D01*
X20232Y404377D01*
X20189Y404283D01*
X20187Y404263D01*
X20179Y404245D01*
X20161Y404078D01*
X20161Y82922D01*
X20164Y82902D01*
X20162Y82883D01*
X20184Y82781D01*
X20200Y82679D01*
X20210Y82662D01*
X20214Y82642D01*
X20267Y82553D01*
X20316Y82462D01*
X20330Y82448D01*
X20340Y82431D01*
X20419Y82364D01*
X20494Y82292D01*
X20512Y82284D01*
X20527Y82271D01*
X20623Y82232D01*
X20717Y82189D01*
X20737Y82187D01*
X20755Y82179D01*
X20922Y82161D01*
X32021Y82161D01*
X35756Y80614D01*
X38614Y77756D01*
X40161Y74021D01*
X40161Y60000D01*
X40164Y59980D01*
X40162Y59961D01*
X40184Y59859D01*
X40200Y59757D01*
X40210Y59740D01*
X40214Y59720D01*
X40267Y59631D01*
X40316Y59540D01*
X40330Y59526D01*
X40340Y59509D01*
X40419Y59442D01*
X40494Y59371D01*
X40512Y59362D01*
X40527Y59349D01*
X40623Y59310D01*
X40717Y59267D01*
X40737Y59265D01*
X40755Y59257D01*
X40922Y59239D01*
X62198Y59239D01*
X62218Y59242D01*
X62237Y59240D01*
X62339Y59262D01*
X62441Y59279D01*
X62458Y59288D01*
X62478Y59292D01*
X62567Y59345D01*
X62658Y59394D01*
X62672Y59408D01*
X62689Y59418D01*
X62756Y59497D01*
X62828Y59572D01*
X62836Y59590D01*
X62849Y59605D01*
X62888Y59701D01*
X62931Y59795D01*
X62933Y59815D01*
X62941Y59833D01*
X62959Y60000D01*
X62959Y303714D01*
X62956Y303734D01*
X62958Y303753D01*
X62936Y303855D01*
X62920Y303957D01*
X62910Y303974D01*
X62906Y303994D01*
X62853Y304083D01*
X62804Y304174D01*
X62790Y304188D01*
X62780Y304205D01*
X62701Y304272D01*
X62626Y304344D01*
X62608Y304352D01*
X62593Y304365D01*
X62497Y304404D01*
X62403Y304447D01*
X62383Y304449D01*
X62365Y304457D01*
X62198Y304475D01*
X59368Y304475D01*
X58475Y305368D01*
X58475Y314632D01*
X59368Y315525D01*
X72632Y315525D01*
X73525Y314632D01*
X73525Y305368D01*
X72632Y304475D01*
X68802Y304475D01*
X68782Y304472D01*
X68763Y304474D01*
X68661Y304452D01*
X68559Y304436D01*
X68542Y304426D01*
X68522Y304422D01*
X68433Y304369D01*
X68342Y304320D01*
X68328Y304306D01*
X68311Y304296D01*
X68244Y304217D01*
X68172Y304142D01*
X68164Y304124D01*
X68151Y304109D01*
X68112Y304013D01*
X68069Y303919D01*
X68067Y303899D01*
X68059Y303881D01*
X68041Y303714D01*
X68041Y60000D01*
X68044Y59980D01*
X68042Y59961D01*
X68064Y59859D01*
X68080Y59757D01*
X68090Y59740D01*
X68094Y59720D01*
X68147Y59631D01*
X68196Y59540D01*
X68210Y59526D01*
X68220Y59509D01*
X68299Y59442D01*
X68374Y59371D01*
X68392Y59362D01*
X68407Y59349D01*
X68503Y59310D01*
X68597Y59267D01*
X68617Y59265D01*
X68635Y59257D01*
X68802Y59239D01*
X86698Y59239D01*
X86718Y59242D01*
X86737Y59240D01*
X86839Y59262D01*
X86941Y59279D01*
X86958Y59288D01*
X86978Y59292D01*
X87067Y59345D01*
X87158Y59394D01*
X87172Y59408D01*
X87189Y59418D01*
X87256Y59497D01*
X87328Y59572D01*
X87336Y59590D01*
X87349Y59605D01*
X87388Y59701D01*
X87431Y59795D01*
X87433Y59815D01*
X87441Y59833D01*
X87459Y60000D01*
X87459Y124074D01*
X87445Y124164D01*
X87437Y124255D01*
X87425Y124285D01*
X87420Y124317D01*
X87377Y124398D01*
X87341Y124481D01*
X87315Y124514D01*
X87304Y124534D01*
X87281Y124556D01*
X87236Y124612D01*
X84943Y126905D01*
X84943Y131095D01*
X87905Y134057D01*
X92095Y134057D01*
X95057Y131095D01*
X95057Y126905D01*
X92764Y124612D01*
X92711Y124538D01*
X92651Y124469D01*
X92639Y124439D01*
X92620Y124413D01*
X92593Y124326D01*
X92559Y124241D01*
X92555Y124200D01*
X92548Y124178D01*
X92549Y124145D01*
X92541Y124074D01*
X92541Y60000D01*
X92544Y59980D01*
X92542Y59961D01*
X92564Y59859D01*
X92580Y59757D01*
X92590Y59740D01*
X92594Y59720D01*
X92647Y59631D01*
X92696Y59540D01*
X92710Y59526D01*
X92720Y59509D01*
X92799Y59442D01*
X92874Y59371D01*
X92892Y59362D01*
X92907Y59349D01*
X93003Y59310D01*
X93097Y59267D01*
X93117Y59265D01*
X93135Y59257D01*
X93302Y59239D01*
X112198Y59239D01*
X112218Y59242D01*
X112237Y59240D01*
X112339Y59262D01*
X112441Y59279D01*
X112458Y59288D01*
X112478Y59292D01*
X112567Y59345D01*
X112658Y59394D01*
X112672Y59408D01*
X112689Y59418D01*
X112756Y59497D01*
X112828Y59572D01*
X112836Y59590D01*
X112849Y59605D01*
X112888Y59701D01*
X112931Y59795D01*
X112933Y59815D01*
X112941Y59833D01*
X112959Y60000D01*
X112959Y172552D01*
X138236Y197829D01*
X138289Y197903D01*
X138349Y197973D01*
X138361Y198003D01*
X138380Y198029D01*
X138407Y198116D01*
X138441Y198201D01*
X138445Y198242D01*
X138452Y198264D01*
X138451Y198296D01*
X138459Y198368D01*
X138459Y229714D01*
X138456Y229734D01*
X138458Y229753D01*
X138436Y229855D01*
X138420Y229957D01*
X138410Y229974D01*
X138406Y229994D01*
X138353Y230083D01*
X138304Y230174D01*
X138290Y230188D01*
X138280Y230205D01*
X138201Y230272D01*
X138126Y230344D01*
X138108Y230352D01*
X138093Y230365D01*
X137997Y230404D01*
X137903Y230447D01*
X137883Y230449D01*
X137865Y230457D01*
X137698Y230475D01*
X136368Y230475D01*
X135475Y231368D01*
X135475Y244632D01*
X136368Y245525D01*
X137698Y245525D01*
X137718Y245528D01*
X137737Y245526D01*
X137839Y245548D01*
X137941Y245564D01*
X137958Y245574D01*
X137978Y245578D01*
X138067Y245631D01*
X138158Y245680D01*
X138172Y245694D01*
X138189Y245704D01*
X138256Y245783D01*
X138328Y245858D01*
X138336Y245876D01*
X138349Y245891D01*
X138388Y245987D01*
X138431Y246081D01*
X138433Y246101D01*
X138441Y246119D01*
X138459Y246286D01*
X138459Y297052D01*
X162583Y321176D01*
X162624Y321234D01*
X162674Y321286D01*
X162696Y321333D01*
X162726Y321375D01*
X162747Y321444D01*
X162777Y321509D01*
X162783Y321561D01*
X162799Y321611D01*
X162797Y321682D01*
X162805Y321753D01*
X162793Y321804D01*
X162792Y321856D01*
X162768Y321924D01*
X162752Y321994D01*
X162726Y322039D01*
X162708Y322087D01*
X162663Y322143D01*
X162626Y322205D01*
X162587Y322239D01*
X162554Y322279D01*
X162494Y322318D01*
X162439Y322365D01*
X162391Y322384D01*
X162347Y322412D01*
X162278Y322430D01*
X162211Y322457D01*
X162140Y322465D01*
X162109Y322473D01*
X162085Y322471D01*
X162044Y322475D01*
X160868Y322475D01*
X160538Y322805D01*
X160522Y322817D01*
X160510Y322833D01*
X160423Y322889D01*
X160339Y322949D01*
X160320Y322955D01*
X160303Y322966D01*
X160202Y322991D01*
X160103Y323021D01*
X160084Y323021D01*
X160064Y323026D01*
X159961Y323018D01*
X159858Y323015D01*
X159839Y323008D01*
X159819Y323007D01*
X159724Y322966D01*
X159627Y322931D01*
X159611Y322918D01*
X159593Y322910D01*
X159462Y322805D01*
X159132Y322475D01*
X149868Y322475D01*
X148975Y323368D01*
X148975Y342632D01*
X149868Y343525D01*
X159132Y343525D01*
X159462Y343195D01*
X159478Y343183D01*
X159490Y343167D01*
X159577Y343111D01*
X159661Y343051D01*
X159680Y343045D01*
X159697Y343034D01*
X159798Y343009D01*
X159897Y342979D01*
X159916Y342979D01*
X159936Y342974D01*
X160039Y342982D01*
X160142Y342985D01*
X160161Y342992D01*
X160181Y342993D01*
X160276Y343034D01*
X160373Y343069D01*
X160389Y343082D01*
X160407Y343090D01*
X160538Y343195D01*
X160868Y343525D01*
X170132Y343525D01*
X170462Y343195D01*
X170478Y343183D01*
X170490Y343167D01*
X170577Y343111D01*
X170661Y343051D01*
X170680Y343045D01*
X170697Y343034D01*
X170798Y343009D01*
X170897Y342979D01*
X170916Y342979D01*
X170936Y342974D01*
X171039Y342982D01*
X171142Y342985D01*
X171161Y342992D01*
X171181Y342993D01*
X171276Y343034D01*
X171373Y343069D01*
X171389Y343082D01*
X171407Y343090D01*
X171538Y343195D01*
X171868Y343525D01*
X181132Y343525D01*
X181462Y343195D01*
X181478Y343183D01*
X181490Y343167D01*
X181577Y343111D01*
X181661Y343051D01*
X181680Y343045D01*
X181697Y343034D01*
X181798Y343009D01*
X181897Y342979D01*
X181916Y342979D01*
X181936Y342974D01*
X182039Y342982D01*
X182142Y342985D01*
X182161Y342992D01*
X182181Y342993D01*
X182276Y343034D01*
X182373Y343069D01*
X182389Y343082D01*
X182407Y343090D01*
X182538Y343195D01*
X182868Y343525D01*
X183544Y343525D01*
X183615Y343536D01*
X183687Y343538D01*
X183736Y343556D01*
X183787Y343564D01*
X183850Y343598D01*
X183918Y343623D01*
X183958Y343655D01*
X184004Y343680D01*
X184054Y343732D01*
X184110Y343776D01*
X184138Y343820D01*
X184174Y343858D01*
X184204Y343923D01*
X184243Y343983D01*
X184256Y344034D01*
X184277Y344081D01*
X184285Y344152D01*
X184303Y344222D01*
X184299Y344274D01*
X184305Y344325D01*
X184289Y344396D01*
X184284Y344467D01*
X184263Y344515D01*
X184252Y344566D01*
X184215Y344627D01*
X184187Y344693D01*
X184143Y344749D01*
X184126Y344777D01*
X184108Y344792D01*
X184083Y344824D01*
X162671Y366236D01*
X162597Y366289D01*
X162527Y366349D01*
X162497Y366361D01*
X162471Y366380D01*
X162384Y366407D01*
X162299Y366441D01*
X162258Y366445D01*
X162236Y366452D01*
X162204Y366451D01*
X162132Y366459D01*
X81948Y366459D01*
X63155Y385252D01*
X63081Y385305D01*
X63011Y385365D01*
X62981Y385377D01*
X62955Y385396D01*
X62868Y385423D01*
X62783Y385457D01*
X62742Y385461D01*
X62720Y385468D01*
X62688Y385467D01*
X62616Y385475D01*
X58368Y385475D01*
X57475Y386368D01*
X57475Y395632D01*
X58368Y396525D01*
X71632Y396525D01*
X72525Y395632D01*
X72525Y386368D01*
X71413Y385257D01*
X71401Y385241D01*
X71386Y385228D01*
X71330Y385141D01*
X71269Y385057D01*
X71264Y385038D01*
X71253Y385021D01*
X71228Y384921D01*
X71197Y384822D01*
X71198Y384802D01*
X71193Y384783D01*
X71201Y384680D01*
X71203Y384576D01*
X71210Y384557D01*
X71212Y384537D01*
X71252Y384443D01*
X71288Y384345D01*
X71300Y384329D01*
X71308Y384311D01*
X71413Y384180D01*
X83829Y371764D01*
X83903Y371711D01*
X83973Y371651D01*
X84003Y371639D01*
X84029Y371620D01*
X84116Y371593D01*
X84201Y371559D01*
X84242Y371555D01*
X84264Y371548D01*
X84296Y371549D01*
X84368Y371541D01*
X164552Y371541D01*
X190041Y346052D01*
X190041Y344286D01*
X190044Y344266D01*
X190042Y344247D01*
X190064Y344145D01*
X190080Y344043D01*
X190090Y344026D01*
X190094Y344006D01*
X190147Y343917D01*
X190196Y343826D01*
X190210Y343812D01*
X190220Y343795D01*
X190299Y343728D01*
X190374Y343656D01*
X190392Y343648D01*
X190407Y343635D01*
X190503Y343596D01*
X190597Y343553D01*
X190617Y343551D01*
X190635Y343543D01*
X190802Y343525D01*
X192132Y343525D01*
X192462Y343195D01*
X192478Y343183D01*
X192490Y343167D01*
X192577Y343111D01*
X192661Y343051D01*
X192680Y343045D01*
X192697Y343034D01*
X192798Y343009D01*
X192897Y342979D01*
X192916Y342979D01*
X192936Y342974D01*
X193039Y342982D01*
X193142Y342985D01*
X193161Y342992D01*
X193181Y342993D01*
X193276Y343034D01*
X193373Y343069D01*
X193389Y343082D01*
X193407Y343090D01*
X193538Y343195D01*
X193868Y343525D01*
X203116Y343525D01*
X203206Y343539D01*
X203297Y343547D01*
X203327Y343559D01*
X203359Y343564D01*
X203440Y343607D01*
X203524Y343643D01*
X203556Y343669D01*
X203576Y343680D01*
X203599Y343703D01*
X203655Y343748D01*
X203940Y344033D01*
X204519Y344368D01*
X205166Y344541D01*
X207977Y344541D01*
X207977Y333762D01*
X207980Y333742D01*
X207978Y333723D01*
X208000Y333621D01*
X208017Y333519D01*
X208026Y333502D01*
X208030Y333482D01*
X208083Y333393D01*
X208132Y333302D01*
X208146Y333288D01*
X208156Y333271D01*
X208235Y333204D01*
X208310Y333133D01*
X208328Y333124D01*
X208343Y333111D01*
X208439Y333072D01*
X208533Y333029D01*
X208553Y333027D01*
X208571Y333019D01*
X208738Y333001D01*
X210262Y333001D01*
X210282Y333004D01*
X210301Y333002D01*
X210403Y333024D01*
X210505Y333041D01*
X210522Y333050D01*
X210542Y333054D01*
X210631Y333107D01*
X210722Y333156D01*
X210736Y333170D01*
X210753Y333180D01*
X210820Y333259D01*
X210891Y333334D01*
X210900Y333352D01*
X210913Y333367D01*
X210952Y333463D01*
X210995Y333557D01*
X210997Y333577D01*
X211005Y333595D01*
X211023Y333762D01*
X211023Y344541D01*
X213835Y344541D01*
X214481Y344368D01*
X215060Y344033D01*
X215345Y343748D01*
X215419Y343695D01*
X215489Y343635D01*
X215519Y343623D01*
X215545Y343604D01*
X215632Y343577D01*
X215717Y343543D01*
X215758Y343539D01*
X215780Y343532D01*
X215812Y343533D01*
X215884Y343525D01*
X225132Y343525D01*
X225462Y343195D01*
X225478Y343183D01*
X225490Y343167D01*
X225577Y343111D01*
X225661Y343051D01*
X225680Y343045D01*
X225697Y343034D01*
X225798Y343009D01*
X225897Y342979D01*
X225916Y342979D01*
X225936Y342974D01*
X226039Y342982D01*
X226142Y342985D01*
X226161Y342992D01*
X226181Y342993D01*
X226276Y343034D01*
X226373Y343069D01*
X226389Y343082D01*
X226407Y343090D01*
X226538Y343195D01*
X226868Y343525D01*
X236132Y343525D01*
X236462Y343195D01*
X236478Y343183D01*
X236490Y343167D01*
X236577Y343111D01*
X236661Y343051D01*
X236680Y343045D01*
X236697Y343034D01*
X236798Y343009D01*
X236897Y342979D01*
X236916Y342979D01*
X236936Y342974D01*
X237039Y342982D01*
X237142Y342985D01*
X237161Y342992D01*
X237181Y342993D01*
X237276Y343034D01*
X237373Y343069D01*
X237389Y343082D01*
X237407Y343090D01*
X237538Y343195D01*
X237868Y343525D01*
X239198Y343525D01*
X239218Y343528D01*
X239237Y343526D01*
X239339Y343548D01*
X239441Y343564D01*
X239458Y343574D01*
X239478Y343578D01*
X239567Y343631D01*
X239658Y343680D01*
X239672Y343694D01*
X239689Y343704D01*
X239756Y343783D01*
X239828Y343858D01*
X239836Y343876D01*
X239849Y343891D01*
X239888Y343987D01*
X239931Y344081D01*
X239933Y344101D01*
X239941Y344119D01*
X239959Y344286D01*
X239959Y348632D01*
X239945Y348722D01*
X239937Y348813D01*
X239925Y348843D01*
X239920Y348875D01*
X239877Y348956D01*
X239841Y349040D01*
X239815Y349072D01*
X239804Y349092D01*
X239781Y349115D01*
X239736Y349171D01*
X227067Y361840D01*
X227051Y361851D01*
X227039Y361867D01*
X226951Y361923D01*
X226868Y361983D01*
X226849Y361989D01*
X226832Y362000D01*
X226731Y362025D01*
X226633Y362055D01*
X226613Y362055D01*
X226593Y362060D01*
X226490Y362052D01*
X226387Y362049D01*
X226368Y362042D01*
X226348Y362041D01*
X226253Y362000D01*
X226156Y361965D01*
X226140Y361952D01*
X226122Y361944D01*
X226120Y361943D01*
X221905Y361943D01*
X218943Y364905D01*
X218943Y369095D01*
X221905Y372057D01*
X226095Y372057D01*
X229057Y369095D01*
X229057Y367352D01*
X229071Y367262D01*
X229079Y367171D01*
X229091Y367141D01*
X229096Y367109D01*
X229139Y367028D01*
X229175Y366944D01*
X229201Y366912D01*
X229212Y366892D01*
X229235Y366869D01*
X229280Y366813D01*
X245041Y351052D01*
X245041Y344286D01*
X245044Y344266D01*
X245042Y344247D01*
X245064Y344145D01*
X245080Y344043D01*
X245090Y344026D01*
X245094Y344006D01*
X245147Y343917D01*
X245196Y343826D01*
X245210Y343812D01*
X245220Y343795D01*
X245299Y343728D01*
X245374Y343656D01*
X245392Y343648D01*
X245407Y343635D01*
X245503Y343596D01*
X245597Y343553D01*
X245617Y343551D01*
X245635Y343543D01*
X245802Y343525D01*
X246448Y343525D01*
X246468Y343528D01*
X246487Y343526D01*
X246589Y343548D01*
X246691Y343564D01*
X246708Y343574D01*
X246728Y343578D01*
X246817Y343631D01*
X246908Y343680D01*
X246922Y343694D01*
X246939Y343704D01*
X247006Y343783D01*
X247078Y343858D01*
X247086Y343876D01*
X247099Y343891D01*
X247138Y343987D01*
X247181Y344081D01*
X247183Y344101D01*
X247191Y344119D01*
X247209Y344286D01*
X247209Y349834D01*
X247382Y350481D01*
X247717Y351060D01*
X248190Y351533D01*
X248769Y351868D01*
X249416Y352041D01*
X253977Y352041D01*
X253977Y339762D01*
X253980Y339742D01*
X253978Y339723D01*
X254000Y339621D01*
X254017Y339519D01*
X254026Y339502D01*
X254030Y339482D01*
X254083Y339393D01*
X254132Y339302D01*
X254146Y339288D01*
X254156Y339271D01*
X254235Y339204D01*
X254310Y339133D01*
X254328Y339124D01*
X254343Y339111D01*
X254439Y339072D01*
X254533Y339029D01*
X254553Y339027D01*
X254571Y339019D01*
X254738Y339001D01*
X255501Y339001D01*
X255501Y338999D01*
X254738Y338999D01*
X254718Y338996D01*
X254699Y338998D01*
X254597Y338976D01*
X254495Y338959D01*
X254478Y338950D01*
X254458Y338946D01*
X254369Y338893D01*
X254278Y338844D01*
X254264Y338830D01*
X254247Y338820D01*
X254180Y338741D01*
X254109Y338666D01*
X254100Y338648D01*
X254087Y338633D01*
X254048Y338537D01*
X254005Y338443D01*
X254003Y338423D01*
X253995Y338405D01*
X253977Y338238D01*
X253977Y325959D01*
X249416Y325959D01*
X248983Y326075D01*
X248864Y326087D01*
X248747Y326100D01*
X248742Y326099D01*
X248738Y326100D01*
X248623Y326073D01*
X248506Y326048D01*
X248503Y326046D01*
X248499Y326045D01*
X248397Y325983D01*
X248295Y325922D01*
X248292Y325918D01*
X248289Y325916D01*
X248213Y325826D01*
X248135Y325735D01*
X248134Y325731D01*
X248131Y325728D01*
X248088Y325619D01*
X248043Y325507D01*
X248043Y325502D01*
X248041Y325499D01*
X248041Y325485D01*
X248025Y325340D01*
X248025Y323368D01*
X247132Y322475D01*
X237868Y322475D01*
X237538Y322805D01*
X237522Y322817D01*
X237510Y322833D01*
X237423Y322889D01*
X237339Y322949D01*
X237320Y322955D01*
X237303Y322966D01*
X237202Y322991D01*
X237103Y323021D01*
X237084Y323021D01*
X237064Y323026D01*
X236961Y323018D01*
X236858Y323015D01*
X236839Y323008D01*
X236819Y323007D01*
X236724Y322966D01*
X236627Y322931D01*
X236611Y322918D01*
X236593Y322910D01*
X236462Y322805D01*
X236132Y322475D01*
X226868Y322475D01*
X226538Y322805D01*
X226522Y322817D01*
X226510Y322833D01*
X226423Y322889D01*
X226339Y322949D01*
X226320Y322955D01*
X226303Y322966D01*
X226202Y322991D01*
X226103Y323021D01*
X226084Y323021D01*
X226064Y323026D01*
X225961Y323018D01*
X225858Y323015D01*
X225839Y323008D01*
X225819Y323007D01*
X225724Y322966D01*
X225627Y322931D01*
X225611Y322918D01*
X225593Y322910D01*
X225462Y322805D01*
X225132Y322475D01*
X223802Y322475D01*
X223782Y322472D01*
X223763Y322474D01*
X223661Y322452D01*
X223559Y322436D01*
X223542Y322426D01*
X223522Y322422D01*
X223433Y322369D01*
X223342Y322320D01*
X223328Y322306D01*
X223311Y322296D01*
X223244Y322217D01*
X223172Y322142D01*
X223164Y322124D01*
X223151Y322109D01*
X223112Y322013D01*
X223069Y321919D01*
X223067Y321899D01*
X223059Y321881D01*
X223041Y321714D01*
X223041Y316868D01*
X223055Y316778D01*
X223063Y316687D01*
X223075Y316657D01*
X223080Y316625D01*
X223123Y316544D01*
X223159Y316460D01*
X223185Y316428D01*
X223196Y316408D01*
X223219Y316385D01*
X223264Y316329D01*
X232541Y307052D01*
X232541Y302926D01*
X232555Y302836D01*
X232563Y302745D01*
X232575Y302715D01*
X232580Y302683D01*
X232623Y302602D01*
X232659Y302519D01*
X232685Y302486D01*
X232696Y302466D01*
X232719Y302444D01*
X232764Y302388D01*
X235057Y300095D01*
X235057Y295905D01*
X232095Y292943D01*
X227905Y292943D01*
X224943Y295905D01*
X224943Y300095D01*
X227236Y302388D01*
X227289Y302462D01*
X227349Y302531D01*
X227361Y302561D01*
X227380Y302587D01*
X227407Y302674D01*
X227441Y302759D01*
X227445Y302800D01*
X227452Y302822D01*
X227451Y302855D01*
X227459Y302926D01*
X227459Y304632D01*
X227445Y304722D01*
X227437Y304813D01*
X227425Y304843D01*
X227420Y304875D01*
X227377Y304956D01*
X227341Y305040D01*
X227315Y305072D01*
X227304Y305092D01*
X227281Y305115D01*
X227236Y305171D01*
X217959Y314448D01*
X217959Y321714D01*
X217956Y321734D01*
X217958Y321753D01*
X217936Y321855D01*
X217920Y321957D01*
X217910Y321974D01*
X217906Y321994D01*
X217853Y322083D01*
X217804Y322174D01*
X217790Y322188D01*
X217780Y322205D01*
X217701Y322272D01*
X217626Y322344D01*
X217608Y322352D01*
X217593Y322365D01*
X217497Y322404D01*
X217403Y322447D01*
X217383Y322449D01*
X217365Y322457D01*
X217198Y322475D01*
X215884Y322475D01*
X215794Y322461D01*
X215703Y322453D01*
X215673Y322441D01*
X215641Y322436D01*
X215560Y322393D01*
X215476Y322357D01*
X215444Y322331D01*
X215424Y322320D01*
X215401Y322297D01*
X215345Y322252D01*
X215060Y321967D01*
X214481Y321632D01*
X213834Y321459D01*
X211023Y321459D01*
X211023Y332238D01*
X211020Y332258D01*
X211022Y332277D01*
X211000Y332379D01*
X210983Y332481D01*
X210974Y332498D01*
X210970Y332518D01*
X210917Y332607D01*
X210868Y332698D01*
X210854Y332712D01*
X210844Y332729D01*
X210765Y332796D01*
X210690Y332867D01*
X210672Y332876D01*
X210657Y332889D01*
X210561Y332928D01*
X210467Y332971D01*
X210447Y332973D01*
X210429Y332981D01*
X210262Y332999D01*
X208738Y332999D01*
X208718Y332996D01*
X208699Y332998D01*
X208597Y332976D01*
X208495Y332959D01*
X208478Y332950D01*
X208458Y332946D01*
X208369Y332893D01*
X208278Y332844D01*
X208264Y332830D01*
X208247Y332820D01*
X208180Y332741D01*
X208109Y332666D01*
X208100Y332648D01*
X208087Y332633D01*
X208048Y332537D01*
X208005Y332443D01*
X208003Y332423D01*
X207995Y332405D01*
X207977Y332238D01*
X207977Y321459D01*
X205166Y321459D01*
X204519Y321632D01*
X203940Y321967D01*
X203655Y322252D01*
X203581Y322305D01*
X203511Y322365D01*
X203481Y322377D01*
X203455Y322396D01*
X203368Y322423D01*
X203283Y322457D01*
X203242Y322461D01*
X203220Y322468D01*
X203188Y322467D01*
X203116Y322475D01*
X201956Y322475D01*
X201885Y322464D01*
X201813Y322462D01*
X201764Y322444D01*
X201713Y322436D01*
X201650Y322402D01*
X201582Y322377D01*
X201542Y322345D01*
X201496Y322320D01*
X201446Y322268D01*
X201390Y322224D01*
X201362Y322180D01*
X201326Y322142D01*
X201296Y322077D01*
X201257Y322017D01*
X201244Y321966D01*
X201223Y321919D01*
X201215Y321848D01*
X201197Y321778D01*
X201201Y321726D01*
X201195Y321675D01*
X201211Y321604D01*
X201216Y321533D01*
X201237Y321485D01*
X201248Y321434D01*
X201285Y321373D01*
X201313Y321307D01*
X201357Y321251D01*
X201374Y321223D01*
X201392Y321208D01*
X201417Y321176D01*
X207541Y315052D01*
X207541Y296926D01*
X207555Y296836D01*
X207563Y296745D01*
X207575Y296715D01*
X207580Y296683D01*
X207623Y296602D01*
X207659Y296519D01*
X207685Y296486D01*
X207696Y296466D01*
X207719Y296444D01*
X207764Y296388D01*
X210057Y294095D01*
X210057Y289905D01*
X207095Y286943D01*
X202905Y286943D01*
X199943Y289905D01*
X199943Y294095D01*
X202236Y296388D01*
X202289Y296462D01*
X202349Y296531D01*
X202361Y296561D01*
X202380Y296587D01*
X202407Y296674D01*
X202441Y296759D01*
X202445Y296800D01*
X202452Y296822D01*
X202451Y296855D01*
X202459Y296926D01*
X202459Y312632D01*
X202445Y312722D01*
X202437Y312813D01*
X202425Y312843D01*
X202420Y312875D01*
X202377Y312956D01*
X202341Y313040D01*
X202315Y313072D01*
X202304Y313092D01*
X202281Y313115D01*
X202236Y313171D01*
X195959Y319448D01*
X195959Y321714D01*
X195956Y321734D01*
X195958Y321753D01*
X195936Y321855D01*
X195920Y321957D01*
X195910Y321974D01*
X195906Y321994D01*
X195853Y322083D01*
X195804Y322174D01*
X195790Y322188D01*
X195780Y322205D01*
X195701Y322272D01*
X195626Y322344D01*
X195608Y322352D01*
X195593Y322365D01*
X195497Y322404D01*
X195403Y322447D01*
X195383Y322449D01*
X195365Y322457D01*
X195198Y322475D01*
X193868Y322475D01*
X193538Y322805D01*
X193522Y322817D01*
X193510Y322833D01*
X193423Y322889D01*
X193339Y322949D01*
X193320Y322955D01*
X193303Y322966D01*
X193202Y322991D01*
X193103Y323021D01*
X193084Y323021D01*
X193064Y323026D01*
X192961Y323018D01*
X192858Y323015D01*
X192839Y323008D01*
X192819Y323007D01*
X192724Y322966D01*
X192627Y322931D01*
X192611Y322918D01*
X192593Y322910D01*
X192462Y322805D01*
X192132Y322475D01*
X191310Y322475D01*
X191290Y322472D01*
X191271Y322474D01*
X191169Y322452D01*
X191067Y322436D01*
X191050Y322426D01*
X191030Y322422D01*
X190941Y322369D01*
X190850Y322320D01*
X190836Y322306D01*
X190819Y322296D01*
X190752Y322217D01*
X190680Y322142D01*
X190672Y322124D01*
X190659Y322109D01*
X190620Y322013D01*
X190577Y321919D01*
X190575Y321899D01*
X190567Y321881D01*
X190549Y321714D01*
X190549Y262268D01*
X190563Y262178D01*
X190571Y262087D01*
X190583Y262057D01*
X190588Y262025D01*
X190631Y261944D01*
X190667Y261860D01*
X190693Y261828D01*
X190704Y261808D01*
X190727Y261785D01*
X190772Y261729D01*
X197049Y255452D01*
X197049Y246286D01*
X197052Y246266D01*
X197050Y246247D01*
X197072Y246145D01*
X197088Y246043D01*
X197098Y246026D01*
X197102Y246006D01*
X197155Y245917D01*
X197204Y245826D01*
X197218Y245812D01*
X197228Y245795D01*
X197307Y245728D01*
X197382Y245656D01*
X197400Y245648D01*
X197415Y245635D01*
X197511Y245596D01*
X197605Y245553D01*
X197625Y245551D01*
X197643Y245543D01*
X197810Y245525D01*
X198632Y245525D01*
X199525Y244632D01*
X199525Y241810D01*
X199528Y241790D01*
X199526Y241771D01*
X199548Y241669D01*
X199564Y241567D01*
X199574Y241550D01*
X199578Y241530D01*
X199631Y241441D01*
X199680Y241350D01*
X199694Y241336D01*
X199704Y241319D01*
X199783Y241252D01*
X199858Y241180D01*
X199876Y241172D01*
X199891Y241159D01*
X199987Y241120D01*
X200081Y241077D01*
X200101Y241075D01*
X200119Y241067D01*
X200286Y241049D01*
X230422Y241049D01*
X230512Y241063D01*
X230603Y241071D01*
X230633Y241083D01*
X230665Y241088D01*
X230745Y241131D01*
X230829Y241167D01*
X230861Y241193D01*
X230882Y241204D01*
X230904Y241227D01*
X230960Y241272D01*
X235252Y245564D01*
X235305Y245638D01*
X235365Y245707D01*
X235377Y245737D01*
X235396Y245764D01*
X235423Y245851D01*
X235457Y245935D01*
X235461Y245976D01*
X235468Y245999D01*
X235467Y246031D01*
X235475Y246102D01*
X235475Y256132D01*
X236368Y257025D01*
X251632Y257025D01*
X252525Y256132D01*
X252525Y244868D01*
X251632Y243975D01*
X242602Y243975D01*
X242512Y243961D01*
X242421Y243953D01*
X242391Y243941D01*
X242359Y243936D01*
X242279Y243893D01*
X242195Y243857D01*
X242163Y243831D01*
X242142Y243820D01*
X242120Y243797D01*
X242064Y243752D01*
X233263Y234951D01*
X200286Y234951D01*
X200266Y234948D01*
X200247Y234950D01*
X200145Y234928D01*
X200043Y234912D01*
X200026Y234902D01*
X200006Y234898D01*
X199917Y234845D01*
X199826Y234796D01*
X199812Y234782D01*
X199795Y234772D01*
X199728Y234693D01*
X199656Y234618D01*
X199648Y234600D01*
X199635Y234585D01*
X199596Y234489D01*
X199553Y234395D01*
X199551Y234375D01*
X199543Y234357D01*
X199525Y234190D01*
X199525Y231368D01*
X198632Y230475D01*
X198318Y230475D01*
X198298Y230472D01*
X198279Y230474D01*
X198177Y230452D01*
X198075Y230436D01*
X198058Y230426D01*
X198038Y230422D01*
X197949Y230369D01*
X197858Y230320D01*
X197844Y230306D01*
X197827Y230296D01*
X197760Y230217D01*
X197688Y230142D01*
X197680Y230124D01*
X197667Y230109D01*
X197628Y230013D01*
X197585Y229919D01*
X197583Y229899D01*
X197575Y229881D01*
X197557Y229714D01*
X197557Y220286D01*
X197560Y220266D01*
X197558Y220247D01*
X197580Y220145D01*
X197596Y220043D01*
X197606Y220026D01*
X197610Y220006D01*
X197663Y219917D01*
X197712Y219826D01*
X197726Y219812D01*
X197736Y219795D01*
X197815Y219728D01*
X197890Y219656D01*
X197908Y219648D01*
X197923Y219635D01*
X198019Y219596D01*
X198113Y219553D01*
X198133Y219551D01*
X198151Y219543D01*
X198318Y219525D01*
X198632Y219525D01*
X199525Y218632D01*
X199525Y205368D01*
X198632Y204475D01*
X198318Y204475D01*
X198298Y204472D01*
X198279Y204474D01*
X198177Y204452D01*
X198075Y204436D01*
X198058Y204426D01*
X198038Y204422D01*
X197949Y204369D01*
X197858Y204320D01*
X197844Y204306D01*
X197827Y204296D01*
X197760Y204217D01*
X197688Y204142D01*
X197680Y204124D01*
X197667Y204109D01*
X197628Y204013D01*
X197585Y203919D01*
X197583Y203899D01*
X197575Y203881D01*
X197557Y203714D01*
X197557Y173527D01*
X172780Y148750D01*
X172727Y148676D01*
X172667Y148606D01*
X172655Y148576D01*
X172636Y148550D01*
X172609Y148463D01*
X172575Y148378D01*
X172571Y148337D01*
X172564Y148315D01*
X172565Y148283D01*
X172557Y148211D01*
X172557Y60000D01*
X172560Y59980D01*
X172558Y59961D01*
X172580Y59859D01*
X172596Y59757D01*
X172606Y59740D01*
X172610Y59720D01*
X172663Y59631D01*
X172712Y59540D01*
X172726Y59526D01*
X172736Y59509D01*
X172815Y59442D01*
X172890Y59371D01*
X172908Y59362D01*
X172923Y59349D01*
X173019Y59310D01*
X173113Y59267D01*
X173133Y59265D01*
X173151Y59257D01*
X173318Y59239D01*
X185592Y59239D01*
X185705Y59257D01*
X185819Y59273D01*
X185829Y59277D01*
X185835Y59279D01*
X185854Y59289D01*
X185973Y59341D01*
X186019Y59368D01*
X186666Y59541D01*
X193131Y59541D01*
X193132Y59540D01*
X193146Y59526D01*
X193156Y59509D01*
X193235Y59442D01*
X193310Y59371D01*
X193328Y59362D01*
X193343Y59349D01*
X193439Y59310D01*
X193533Y59267D01*
X193553Y59265D01*
X193571Y59257D01*
X193738Y59239D01*
X195262Y59239D01*
X195282Y59242D01*
X195301Y59240D01*
X195403Y59262D01*
X195505Y59279D01*
X195522Y59288D01*
X195542Y59292D01*
X195631Y59345D01*
X195722Y59394D01*
X195736Y59408D01*
X195753Y59418D01*
X195820Y59497D01*
X195862Y59541D01*
X202334Y59541D01*
X202981Y59368D01*
X203027Y59341D01*
X203134Y59300D01*
X203241Y59257D01*
X203251Y59256D01*
X203257Y59254D01*
X203279Y59253D01*
X203408Y59239D01*
X235578Y59239D01*
X235598Y59242D01*
X235617Y59240D01*
X235719Y59262D01*
X235821Y59279D01*
X235838Y59288D01*
X235858Y59292D01*
X235947Y59345D01*
X236038Y59394D01*
X236052Y59408D01*
X236069Y59418D01*
X236136Y59497D01*
X236208Y59572D01*
X236216Y59590D01*
X236229Y59605D01*
X236268Y59701D01*
X236311Y59795D01*
X236313Y59815D01*
X236321Y59833D01*
X236339Y60000D01*
X236339Y91900D01*
X238099Y96149D01*
X241351Y99401D01*
X245600Y101161D01*
X263400Y101161D01*
X267649Y99401D01*
X270660Y96390D01*
X270718Y96348D01*
X270770Y96298D01*
X270817Y96276D01*
X270859Y96246D01*
X270928Y96225D01*
X270993Y96195D01*
X271045Y96189D01*
X271095Y96174D01*
X271166Y96176D01*
X271237Y96168D01*
X271288Y96179D01*
X271340Y96180D01*
X271408Y96205D01*
X271478Y96220D01*
X271523Y96247D01*
X271571Y96265D01*
X271627Y96309D01*
X271689Y96346D01*
X271723Y96386D01*
X271763Y96418D01*
X271802Y96479D01*
X271849Y96533D01*
X271868Y96581D01*
X271896Y96625D01*
X271914Y96695D01*
X271941Y96761D01*
X271949Y96833D01*
X271957Y96864D01*
X271955Y96887D01*
X271959Y96928D01*
X271959Y101132D01*
X271958Y101142D01*
X271958Y101147D01*
X271953Y101173D01*
X271945Y101222D01*
X271937Y101313D01*
X271925Y101343D01*
X271920Y101375D01*
X271877Y101456D01*
X271841Y101540D01*
X271815Y101572D01*
X271804Y101592D01*
X271781Y101615D01*
X271736Y101671D01*
X251687Y121720D01*
X251613Y121773D01*
X251543Y121833D01*
X251513Y121845D01*
X251487Y121864D01*
X251400Y121891D01*
X251315Y121925D01*
X251274Y121929D01*
X251252Y121936D01*
X251220Y121935D01*
X251148Y121943D01*
X247905Y121943D01*
X244943Y124905D01*
X244943Y129095D01*
X247905Y132057D01*
X252095Y132057D01*
X255057Y129095D01*
X255057Y125852D01*
X255071Y125762D01*
X255079Y125671D01*
X255091Y125641D01*
X255096Y125609D01*
X255139Y125528D01*
X255175Y125444D01*
X255201Y125412D01*
X255212Y125392D01*
X255235Y125369D01*
X255280Y125313D01*
X277041Y103552D01*
X277041Y60000D01*
X277044Y59980D01*
X277042Y59961D01*
X277064Y59859D01*
X277080Y59757D01*
X277090Y59740D01*
X277094Y59720D01*
X277147Y59631D01*
X277196Y59540D01*
X277210Y59526D01*
X277220Y59509D01*
X277299Y59442D01*
X277374Y59370D01*
X277392Y59362D01*
X277407Y59349D01*
X277503Y59310D01*
X277597Y59267D01*
X277617Y59265D01*
X277635Y59257D01*
X277802Y59239D01*
X296198Y59239D01*
X296218Y59242D01*
G37*
G36*
X130598Y59242D02*
X130598Y59242D01*
X130617Y59240D01*
X130719Y59262D01*
X130821Y59279D01*
X130838Y59288D01*
X130858Y59292D01*
X130947Y59345D01*
X131038Y59394D01*
X131052Y59408D01*
X131069Y59418D01*
X131136Y59497D01*
X131208Y59572D01*
X131216Y59590D01*
X131229Y59605D01*
X131268Y59701D01*
X131311Y59795D01*
X131313Y59815D01*
X131321Y59833D01*
X131339Y60000D01*
X131339Y91900D01*
X133099Y96149D01*
X136351Y99401D01*
X140600Y101161D01*
X158400Y101161D01*
X162649Y99401D01*
X164144Y97906D01*
X164202Y97864D01*
X164254Y97814D01*
X164301Y97792D01*
X164343Y97762D01*
X164412Y97741D01*
X164477Y97711D01*
X164529Y97705D01*
X164579Y97690D01*
X164650Y97692D01*
X164721Y97684D01*
X164772Y97695D01*
X164824Y97696D01*
X164892Y97721D01*
X164962Y97736D01*
X165007Y97763D01*
X165055Y97781D01*
X165111Y97825D01*
X165173Y97862D01*
X165207Y97902D01*
X165247Y97934D01*
X165286Y97995D01*
X165333Y98049D01*
X165352Y98097D01*
X165380Y98141D01*
X165398Y98211D01*
X165425Y98277D01*
X165433Y98349D01*
X165441Y98380D01*
X165439Y98403D01*
X165443Y98444D01*
X165443Y151473D01*
X190220Y176250D01*
X190273Y176324D01*
X190333Y176394D01*
X190345Y176424D01*
X190364Y176450D01*
X190391Y176537D01*
X190425Y176622D01*
X190429Y176663D01*
X190436Y176685D01*
X190435Y176717D01*
X190443Y176789D01*
X190443Y203714D01*
X190440Y203734D01*
X190442Y203753D01*
X190420Y203855D01*
X190404Y203957D01*
X190394Y203974D01*
X190390Y203994D01*
X190337Y204083D01*
X190288Y204174D01*
X190274Y204188D01*
X190264Y204205D01*
X190185Y204272D01*
X190110Y204344D01*
X190092Y204352D01*
X190077Y204365D01*
X189981Y204404D01*
X189887Y204447D01*
X189867Y204449D01*
X189849Y204457D01*
X189682Y204475D01*
X189368Y204475D01*
X188475Y205368D01*
X188475Y218632D01*
X189368Y219525D01*
X189682Y219525D01*
X189702Y219528D01*
X189721Y219526D01*
X189823Y219548D01*
X189925Y219564D01*
X189942Y219574D01*
X189962Y219578D01*
X190051Y219631D01*
X190142Y219680D01*
X190156Y219694D01*
X190173Y219704D01*
X190240Y219783D01*
X190312Y219858D01*
X190320Y219876D01*
X190333Y219891D01*
X190372Y219987D01*
X190415Y220081D01*
X190417Y220101D01*
X190425Y220119D01*
X190443Y220286D01*
X190443Y229714D01*
X190440Y229734D01*
X190442Y229753D01*
X190420Y229855D01*
X190404Y229957D01*
X190394Y229974D01*
X190390Y229994D01*
X190337Y230083D01*
X190288Y230174D01*
X190274Y230188D01*
X190264Y230205D01*
X190185Y230272D01*
X190110Y230344D01*
X190092Y230352D01*
X190077Y230365D01*
X189981Y230404D01*
X189887Y230447D01*
X189867Y230449D01*
X189849Y230457D01*
X189682Y230475D01*
X189368Y230475D01*
X188475Y231368D01*
X188475Y244632D01*
X189368Y245525D01*
X190190Y245525D01*
X190210Y245528D01*
X190229Y245526D01*
X190331Y245548D01*
X190433Y245564D01*
X190450Y245574D01*
X190470Y245578D01*
X190559Y245631D01*
X190650Y245680D01*
X190664Y245694D01*
X190681Y245704D01*
X190748Y245783D01*
X190820Y245858D01*
X190828Y245876D01*
X190841Y245891D01*
X190880Y245987D01*
X190923Y246081D01*
X190925Y246101D01*
X190933Y246119D01*
X190951Y246286D01*
X190951Y252611D01*
X190949Y252625D01*
X190950Y252636D01*
X190938Y252691D01*
X190937Y252701D01*
X190929Y252792D01*
X190917Y252822D01*
X190912Y252854D01*
X190869Y252935D01*
X190833Y253019D01*
X190807Y253051D01*
X190796Y253071D01*
X190773Y253094D01*
X190728Y253150D01*
X184451Y259427D01*
X184451Y321714D01*
X184448Y321734D01*
X184450Y321753D01*
X184428Y321855D01*
X184412Y321957D01*
X184402Y321974D01*
X184398Y321994D01*
X184345Y322083D01*
X184296Y322174D01*
X184282Y322188D01*
X184272Y322205D01*
X184193Y322272D01*
X184118Y322344D01*
X184100Y322352D01*
X184085Y322365D01*
X183989Y322404D01*
X183895Y322447D01*
X183875Y322449D01*
X183857Y322457D01*
X183690Y322475D01*
X182868Y322475D01*
X182538Y322805D01*
X182522Y322817D01*
X182510Y322833D01*
X182423Y322889D01*
X182339Y322949D01*
X182320Y322955D01*
X182303Y322966D01*
X182202Y322991D01*
X182103Y323021D01*
X182084Y323021D01*
X182064Y323026D01*
X181961Y323018D01*
X181858Y323015D01*
X181839Y323008D01*
X181819Y323007D01*
X181724Y322966D01*
X181627Y322931D01*
X181611Y322918D01*
X181593Y322910D01*
X181462Y322805D01*
X181132Y322475D01*
X179802Y322475D01*
X179782Y322472D01*
X179763Y322474D01*
X179661Y322452D01*
X179559Y322436D01*
X179542Y322426D01*
X179522Y322422D01*
X179433Y322369D01*
X179342Y322320D01*
X179328Y322306D01*
X179311Y322296D01*
X179244Y322217D01*
X179172Y322142D01*
X179164Y322124D01*
X179151Y322109D01*
X179112Y322013D01*
X179069Y321919D01*
X179067Y321899D01*
X179059Y321881D01*
X179041Y321714D01*
X179041Y306948D01*
X165764Y293671D01*
X165711Y293597D01*
X165651Y293527D01*
X165639Y293497D01*
X165620Y293471D01*
X165593Y293384D01*
X165559Y293299D01*
X165555Y293258D01*
X165548Y293236D01*
X165549Y293204D01*
X165541Y293132D01*
X165541Y268926D01*
X165555Y268836D01*
X165563Y268745D01*
X165575Y268715D01*
X165580Y268683D01*
X165623Y268602D01*
X165659Y268519D01*
X165685Y268486D01*
X165696Y268466D01*
X165719Y268444D01*
X165764Y268388D01*
X168057Y266095D01*
X168057Y261905D01*
X165095Y258943D01*
X160905Y258943D01*
X157943Y261905D01*
X157943Y266095D01*
X160236Y268388D01*
X160289Y268462D01*
X160349Y268531D01*
X160361Y268561D01*
X160380Y268587D01*
X160407Y268674D01*
X160441Y268759D01*
X160445Y268800D01*
X160452Y268822D01*
X160451Y268855D01*
X160459Y268926D01*
X160459Y295552D01*
X173736Y308829D01*
X173789Y308903D01*
X173849Y308973D01*
X173861Y309003D01*
X173880Y309029D01*
X173907Y309116D01*
X173941Y309201D01*
X173945Y309242D01*
X173952Y309264D01*
X173951Y309296D01*
X173959Y309368D01*
X173959Y321714D01*
X173956Y321734D01*
X173958Y321753D01*
X173936Y321855D01*
X173920Y321957D01*
X173910Y321974D01*
X173906Y321994D01*
X173853Y322083D01*
X173804Y322174D01*
X173790Y322188D01*
X173780Y322205D01*
X173701Y322272D01*
X173626Y322344D01*
X173608Y322352D01*
X173593Y322365D01*
X173497Y322404D01*
X173403Y322447D01*
X173383Y322449D01*
X173365Y322457D01*
X173198Y322475D01*
X171868Y322475D01*
X171538Y322805D01*
X171522Y322817D01*
X171510Y322833D01*
X171423Y322889D01*
X171339Y322949D01*
X171320Y322955D01*
X171303Y322966D01*
X171202Y322991D01*
X171103Y323021D01*
X171084Y323021D01*
X171064Y323026D01*
X170961Y323018D01*
X170858Y323015D01*
X170839Y323008D01*
X170819Y323007D01*
X170724Y322966D01*
X170627Y322931D01*
X170611Y322918D01*
X170593Y322910D01*
X170462Y322805D01*
X170132Y322475D01*
X168802Y322475D01*
X168782Y322472D01*
X168763Y322474D01*
X168661Y322452D01*
X168559Y322436D01*
X168542Y322426D01*
X168522Y322422D01*
X168433Y322369D01*
X168342Y322320D01*
X168328Y322306D01*
X168311Y322296D01*
X168244Y322217D01*
X168172Y322142D01*
X168164Y322124D01*
X168151Y322109D01*
X168112Y322013D01*
X168069Y321919D01*
X168067Y321899D01*
X168059Y321881D01*
X168041Y321714D01*
X168041Y319448D01*
X143764Y295171D01*
X143711Y295097D01*
X143651Y295027D01*
X143639Y294997D01*
X143620Y294971D01*
X143593Y294884D01*
X143559Y294799D01*
X143555Y294758D01*
X143548Y294736D01*
X143549Y294704D01*
X143541Y294632D01*
X143541Y246286D01*
X143544Y246266D01*
X143542Y246247D01*
X143564Y246145D01*
X143580Y246043D01*
X143590Y246026D01*
X143594Y246006D01*
X143647Y245917D01*
X143696Y245826D01*
X143710Y245812D01*
X143720Y245795D01*
X143799Y245728D01*
X143874Y245656D01*
X143892Y245648D01*
X143907Y245635D01*
X144003Y245596D01*
X144097Y245553D01*
X144117Y245551D01*
X144135Y245543D01*
X144302Y245525D01*
X145632Y245525D01*
X146525Y244632D01*
X146525Y231368D01*
X145632Y230475D01*
X144302Y230475D01*
X144282Y230472D01*
X144263Y230474D01*
X144161Y230452D01*
X144059Y230436D01*
X144042Y230426D01*
X144022Y230422D01*
X143933Y230369D01*
X143842Y230320D01*
X143828Y230306D01*
X143811Y230296D01*
X143744Y230217D01*
X143672Y230142D01*
X143664Y230124D01*
X143651Y230109D01*
X143612Y230013D01*
X143569Y229919D01*
X143567Y229899D01*
X143559Y229881D01*
X143541Y229714D01*
X143541Y195948D01*
X118264Y170671D01*
X118211Y170597D01*
X118151Y170527D01*
X118139Y170497D01*
X118120Y170471D01*
X118093Y170384D01*
X118059Y170299D01*
X118055Y170258D01*
X118048Y170236D01*
X118049Y170204D01*
X118041Y170132D01*
X118041Y60000D01*
X118044Y59980D01*
X118042Y59961D01*
X118064Y59859D01*
X118080Y59757D01*
X118090Y59740D01*
X118094Y59720D01*
X118147Y59631D01*
X118196Y59540D01*
X118210Y59526D01*
X118220Y59509D01*
X118299Y59442D01*
X118374Y59371D01*
X118392Y59362D01*
X118407Y59349D01*
X118503Y59310D01*
X118597Y59267D01*
X118617Y59265D01*
X118635Y59257D01*
X118802Y59239D01*
X130578Y59239D01*
X130598Y59242D01*
G37*
%LPC*%
G36*
X258368Y253475D02*
X258368Y253475D01*
X257475Y254368D01*
X257475Y265632D01*
X258368Y266525D01*
X273632Y266525D01*
X274243Y265913D01*
X274259Y265901D01*
X274272Y265886D01*
X274359Y265830D01*
X274443Y265769D01*
X274462Y265764D01*
X274479Y265753D01*
X274579Y265728D01*
X274678Y265697D01*
X274698Y265698D01*
X274717Y265693D01*
X274820Y265701D01*
X274924Y265703D01*
X274943Y265710D01*
X274963Y265712D01*
X275057Y265752D01*
X275155Y265788D01*
X275171Y265800D01*
X275189Y265808D01*
X275320Y265913D01*
X288236Y278829D01*
X288289Y278903D01*
X288349Y278973D01*
X288361Y279003D01*
X288380Y279029D01*
X288407Y279116D01*
X288441Y279201D01*
X288445Y279242D01*
X288452Y279264D01*
X288451Y279296D01*
X288459Y279368D01*
X288459Y389714D01*
X288456Y389734D01*
X288458Y389753D01*
X288436Y389855D01*
X288420Y389957D01*
X288410Y389974D01*
X288406Y389994D01*
X288353Y390083D01*
X288304Y390174D01*
X288290Y390188D01*
X288280Y390205D01*
X288201Y390272D01*
X288126Y390344D01*
X288108Y390352D01*
X288093Y390365D01*
X287997Y390404D01*
X287903Y390447D01*
X287883Y390449D01*
X287865Y390457D01*
X287698Y390475D01*
X284368Y390475D01*
X283475Y391368D01*
X283475Y400632D01*
X284368Y401525D01*
X297632Y401525D01*
X298525Y400632D01*
X298525Y391368D01*
X297632Y390475D01*
X294302Y390475D01*
X294282Y390472D01*
X294263Y390474D01*
X294161Y390452D01*
X294059Y390436D01*
X294042Y390426D01*
X294022Y390422D01*
X293933Y390369D01*
X293842Y390320D01*
X293828Y390306D01*
X293811Y390296D01*
X293744Y390217D01*
X293672Y390142D01*
X293664Y390124D01*
X293651Y390109D01*
X293612Y390013D01*
X293569Y389919D01*
X293567Y389899D01*
X293559Y389881D01*
X293541Y389714D01*
X293541Y276948D01*
X274748Y258155D01*
X274695Y258081D01*
X274635Y258011D01*
X274623Y257981D01*
X274604Y257955D01*
X274577Y257868D01*
X274543Y257783D01*
X274539Y257742D01*
X274532Y257720D01*
X274533Y257688D01*
X274525Y257616D01*
X274525Y254368D01*
X273632Y253475D01*
X258368Y253475D01*
G37*
%LPD*%
%LPC*%
G36*
X219905Y257943D02*
X219905Y257943D01*
X216943Y260905D01*
X216943Y265095D01*
X219905Y268057D01*
X223148Y268057D01*
X223238Y268071D01*
X223329Y268079D01*
X223359Y268091D01*
X223391Y268096D01*
X223472Y268139D01*
X223556Y268175D01*
X223588Y268201D01*
X223608Y268212D01*
X223631Y268235D01*
X223687Y268280D01*
X227448Y272041D01*
X234714Y272041D01*
X234734Y272044D01*
X234753Y272042D01*
X234855Y272064D01*
X234957Y272080D01*
X234974Y272090D01*
X234994Y272094D01*
X235083Y272147D01*
X235174Y272196D01*
X235188Y272210D01*
X235205Y272220D01*
X235272Y272299D01*
X235344Y272374D01*
X235352Y272392D01*
X235365Y272407D01*
X235404Y272503D01*
X235447Y272597D01*
X235449Y272617D01*
X235457Y272635D01*
X235475Y272802D01*
X235475Y275132D01*
X236368Y276025D01*
X251632Y276025D01*
X252525Y275132D01*
X252525Y263868D01*
X251632Y262975D01*
X236368Y262975D01*
X235475Y263868D01*
X235475Y266198D01*
X235472Y266218D01*
X235474Y266237D01*
X235452Y266338D01*
X235436Y266441D01*
X235426Y266458D01*
X235422Y266478D01*
X235369Y266567D01*
X235320Y266658D01*
X235306Y266672D01*
X235296Y266689D01*
X235217Y266756D01*
X235142Y266828D01*
X235124Y266836D01*
X235109Y266849D01*
X235013Y266888D01*
X234919Y266931D01*
X234899Y266933D01*
X234881Y266941D01*
X234714Y266959D01*
X229868Y266959D01*
X229778Y266945D01*
X229687Y266937D01*
X229657Y266925D01*
X229625Y266920D01*
X229544Y266877D01*
X229460Y266841D01*
X229428Y266815D01*
X229408Y266804D01*
X229385Y266781D01*
X229329Y266736D01*
X227280Y264687D01*
X227227Y264613D01*
X227167Y264543D01*
X227155Y264513D01*
X227136Y264487D01*
X227109Y264400D01*
X227075Y264315D01*
X227071Y264274D01*
X227064Y264252D01*
X227065Y264220D01*
X227057Y264148D01*
X227057Y260905D01*
X224095Y257943D01*
X219905Y257943D01*
G37*
%LPD*%
%LPC*%
G36*
X154368Y230475D02*
X154368Y230475D01*
X153475Y231368D01*
X153475Y244632D01*
X154368Y245525D01*
X163632Y245525D01*
X164525Y244632D01*
X164525Y241302D01*
X164528Y241282D01*
X164526Y241263D01*
X164548Y241161D01*
X164564Y241059D01*
X164574Y241042D01*
X164578Y241022D01*
X164631Y240933D01*
X164680Y240842D01*
X164694Y240828D01*
X164704Y240811D01*
X164783Y240744D01*
X164858Y240672D01*
X164876Y240664D01*
X164891Y240651D01*
X164987Y240612D01*
X165081Y240569D01*
X165101Y240567D01*
X165119Y240559D01*
X165286Y240541D01*
X169714Y240541D01*
X169734Y240544D01*
X169753Y240542D01*
X169855Y240564D01*
X169957Y240580D01*
X169974Y240590D01*
X169994Y240594D01*
X170083Y240647D01*
X170174Y240696D01*
X170188Y240710D01*
X170205Y240720D01*
X170272Y240799D01*
X170344Y240874D01*
X170352Y240892D01*
X170365Y240907D01*
X170404Y241003D01*
X170447Y241097D01*
X170449Y241117D01*
X170457Y241135D01*
X170475Y241302D01*
X170475Y244632D01*
X171368Y245525D01*
X180632Y245525D01*
X181525Y244632D01*
X181525Y231368D01*
X180632Y230475D01*
X171368Y230475D01*
X170475Y231368D01*
X170475Y234698D01*
X170472Y234718D01*
X170474Y234737D01*
X170452Y234839D01*
X170436Y234941D01*
X170426Y234958D01*
X170422Y234978D01*
X170369Y235067D01*
X170320Y235158D01*
X170306Y235172D01*
X170296Y235189D01*
X170217Y235256D01*
X170142Y235328D01*
X170124Y235336D01*
X170109Y235349D01*
X170013Y235388D01*
X169919Y235431D01*
X169899Y235433D01*
X169881Y235441D01*
X169714Y235459D01*
X165286Y235459D01*
X165266Y235456D01*
X165247Y235458D01*
X165145Y235436D01*
X165043Y235420D01*
X165026Y235410D01*
X165006Y235406D01*
X164917Y235353D01*
X164826Y235304D01*
X164812Y235290D01*
X164795Y235280D01*
X164728Y235201D01*
X164656Y235126D01*
X164648Y235108D01*
X164635Y235093D01*
X164596Y234997D01*
X164553Y234903D01*
X164551Y234883D01*
X164543Y234865D01*
X164525Y234698D01*
X164525Y231368D01*
X163632Y230475D01*
X154368Y230475D01*
G37*
%LPD*%
%LPC*%
G36*
X97023Y423959D02*
X97023Y423959D01*
X97023Y435977D01*
X105041Y435977D01*
X105041Y426166D01*
X104868Y425519D01*
X104533Y424940D01*
X104060Y424467D01*
X103481Y424132D01*
X102834Y423959D01*
X97023Y423959D01*
G37*
%LPD*%
%LPC*%
G36*
X257023Y423959D02*
X257023Y423959D01*
X257023Y435977D01*
X265041Y435977D01*
X265041Y426166D01*
X264868Y425519D01*
X264533Y424940D01*
X264060Y424467D01*
X263481Y424132D01*
X262834Y423959D01*
X257023Y423959D01*
G37*
%LPD*%
%LPC*%
G36*
X88166Y423959D02*
X88166Y423959D01*
X87519Y424132D01*
X86940Y424467D01*
X86467Y424940D01*
X86132Y425519D01*
X85959Y426166D01*
X85959Y435977D01*
X93977Y435977D01*
X93977Y423959D01*
X88166Y423959D01*
G37*
%LPD*%
%LPC*%
G36*
X248166Y423959D02*
X248166Y423959D01*
X247519Y424132D01*
X246940Y424467D01*
X246467Y424940D01*
X246132Y425519D01*
X245959Y426166D01*
X245959Y435977D01*
X253977Y435977D01*
X253977Y423959D01*
X248166Y423959D01*
G37*
%LPD*%
%LPC*%
G36*
X106523Y339523D02*
X106523Y339523D01*
X106523Y348541D01*
X114334Y348541D01*
X114981Y348368D01*
X115560Y348033D01*
X116033Y347560D01*
X116368Y346981D01*
X116541Y346334D01*
X116541Y339523D01*
X106523Y339523D01*
G37*
%LPD*%
%LPC*%
G36*
X106523Y336477D02*
X106523Y336477D01*
X116541Y336477D01*
X116541Y329666D01*
X116368Y329019D01*
X116033Y328440D01*
X115560Y327967D01*
X114981Y327632D01*
X114334Y327459D01*
X106523Y327459D01*
X106523Y336477D01*
G37*
%LPD*%
%LPC*%
G36*
X93459Y339523D02*
X93459Y339523D01*
X93459Y346334D01*
X93632Y346981D01*
X93967Y347560D01*
X94440Y348033D01*
X95019Y348368D01*
X95666Y348541D01*
X103477Y348541D01*
X103477Y339523D01*
X93459Y339523D01*
G37*
%LPD*%
%LPC*%
G36*
X95666Y327459D02*
X95666Y327459D01*
X95019Y327632D01*
X94440Y327967D01*
X93967Y328440D01*
X93632Y329019D01*
X93459Y329666D01*
X93459Y336477D01*
X103477Y336477D01*
X103477Y327459D01*
X95666Y327459D01*
G37*
%LPD*%
%LPC*%
G36*
X257023Y340523D02*
X257023Y340523D01*
X257023Y352041D01*
X261584Y352041D01*
X262231Y351868D01*
X262810Y351533D01*
X263283Y351060D01*
X263618Y350481D01*
X263791Y349834D01*
X263791Y340523D01*
X257023Y340523D01*
G37*
%LPD*%
%LPC*%
G36*
X257023Y325959D02*
X257023Y325959D01*
X257023Y337477D01*
X263791Y337477D01*
X263791Y328166D01*
X263618Y327519D01*
X263283Y326940D01*
X262810Y326467D01*
X262231Y326132D01*
X261584Y325959D01*
X257023Y325959D01*
G37*
%LPD*%
%LPC*%
G36*
X313023Y433459D02*
X313023Y433459D01*
X313023Y440477D01*
X320041Y440477D01*
X320041Y435666D01*
X319868Y435019D01*
X319533Y434440D01*
X319060Y433967D01*
X318481Y433632D01*
X317834Y433459D01*
X313023Y433459D01*
G37*
%LPD*%
%LPC*%
G36*
X305166Y433459D02*
X305166Y433459D01*
X304519Y433632D01*
X303940Y433967D01*
X303467Y434440D01*
X303132Y435019D01*
X302959Y435666D01*
X302959Y440477D01*
X309977Y440477D01*
X309977Y433459D01*
X305166Y433459D01*
G37*
%LPD*%
%LPC*%
G36*
X213523Y213523D02*
X213523Y213523D01*
X213523Y220541D01*
X216334Y220541D01*
X216981Y220368D01*
X217560Y220033D01*
X218033Y219560D01*
X218368Y218981D01*
X218541Y218334D01*
X218541Y213523D01*
X213523Y213523D01*
G37*
%LPD*%
%LPC*%
G36*
X213523Y203459D02*
X213523Y203459D01*
X213523Y210477D01*
X218541Y210477D01*
X218541Y205666D01*
X218368Y205019D01*
X218033Y204440D01*
X217560Y203967D01*
X216981Y203632D01*
X216334Y203459D01*
X213523Y203459D01*
G37*
%LPD*%
%LPC*%
G36*
X205459Y213523D02*
X205459Y213523D01*
X205459Y218334D01*
X205632Y218981D01*
X205967Y219560D01*
X206440Y220033D01*
X207019Y220368D01*
X207666Y220541D01*
X210477Y220541D01*
X210477Y213523D01*
X205459Y213523D01*
G37*
%LPD*%
%LPC*%
G36*
X207666Y203459D02*
X207666Y203459D01*
X207019Y203632D01*
X206440Y203967D01*
X205967Y204440D01*
X205632Y205019D01*
X205459Y205666D01*
X205459Y210477D01*
X210477Y210477D01*
X210477Y203459D01*
X207666Y203459D01*
G37*
%LPD*%
%LPC*%
G36*
X211999Y211999D02*
X211999Y211999D01*
X211999Y212001D01*
X212001Y212001D01*
X212001Y211999D01*
X211999Y211999D01*
G37*
%LPD*%
%LPC*%
G36*
X104999Y337999D02*
X104999Y337999D01*
X104999Y338001D01*
X105001Y338001D01*
X105001Y337999D01*
X104999Y337999D01*
G37*
%LPD*%
D10*
X299500Y33500D03*
X274500Y33500D03*
D11*
X219500Y29500D03*
X194500Y29500D03*
D12*
X169000Y29500D03*
D10*
X115500Y33500D03*
X90500Y33500D03*
X65500Y33500D03*
D13*
X187500Y333000D03*
X198500Y333000D03*
X209500Y333000D03*
X220500Y333000D03*
X231500Y333000D03*
X176500Y333000D03*
X165500Y333000D03*
X154500Y333000D03*
D14*
X255500Y339000D03*
D15*
X95500Y437500D03*
D13*
X242500Y333000D03*
D16*
X105000Y338000D03*
D15*
X255500Y437500D03*
D17*
X44500Y442000D03*
X65500Y442000D03*
D18*
X65000Y409000D03*
X65000Y391000D03*
D17*
X311500Y442000D03*
X290500Y442000D03*
D18*
X291000Y414000D03*
X291000Y396000D03*
D19*
X266000Y260000D03*
X244000Y250500D03*
X244000Y269500D03*
D20*
X194000Y238000D03*
X176000Y238000D03*
X141000Y238000D03*
X159000Y238000D03*
X212000Y212000D03*
X194000Y212000D03*
D18*
X66000Y328000D03*
X66000Y310000D03*
D21*
X194500Y74500D02*
X194500Y29500D01*
D22*
X194500Y74500D02*
X195000Y75000D01*
D23*
X105000Y235000D03*
X105000Y225000D03*
X164000Y182000D03*
X164000Y174000D03*
X193000Y111000D03*
X201000Y111000D03*
X209000Y111000D03*
X321000Y110000D03*
X321000Y118000D03*
X27000Y128000D03*
X27000Y136000D03*
X46000Y339000D03*
X46000Y331000D03*
X308000Y324000D03*
X308000Y316000D03*
X315000Y418000D03*
X315000Y409000D03*
X26000Y397000D03*
X26000Y387000D03*
X95000Y306000D03*
X95000Y298000D03*
X230000Y298000D03*
D24*
X220500Y315500D02*
X220500Y333000D01*
X230000Y306000D02*
X230000Y298000D01*
X230000Y306000D02*
X220500Y315500D01*
X299500Y118500D02*
X299500Y33500D01*
X299500Y118500D02*
X299000Y119000D01*
D23*
X299000Y119000D03*
D24*
X274500Y102500D02*
X274500Y33500D01*
X274500Y102500D02*
X250000Y127000D01*
D23*
X250000Y127000D03*
X163000Y264000D03*
D24*
X163000Y294500D01*
X176500Y308000D02*
X176500Y333000D01*
X176500Y308000D02*
X163000Y294500D01*
D22*
X169000Y150000D02*
X169000Y29500D01*
X194000Y175000D02*
X194000Y212000D01*
X194000Y175000D02*
X169000Y150000D01*
D25*
X232000Y238000D02*
X244000Y250000D01*
X232000Y238000D02*
X194000Y238000D01*
X244000Y250000D02*
X244000Y250500D01*
X187500Y260690D02*
X187500Y333000D01*
X187500Y260690D02*
X194000Y254190D01*
X194000Y238000D01*
D24*
X187500Y333000D02*
X187500Y345000D01*
X163500Y369000D01*
X83000Y369000D01*
X65000Y387000D02*
X65000Y391000D01*
X65000Y387000D02*
X83000Y369000D01*
D22*
X194000Y238000D02*
X194000Y212000D01*
D24*
X115500Y171500D02*
X115500Y33500D01*
X141000Y197000D02*
X141000Y238000D01*
X141000Y197000D02*
X115500Y171500D01*
X165500Y320500D02*
X165500Y333000D01*
X141000Y296000D02*
X141000Y238000D01*
X141000Y296000D02*
X165500Y320500D01*
X198500Y320500D02*
X198500Y333000D01*
X205000Y314000D02*
X205000Y292000D01*
X205000Y314000D02*
X198500Y320500D01*
D23*
X205000Y292000D03*
X90000Y129000D03*
D24*
X90000Y34000D01*
X90500Y33500D01*
X65500Y309500D02*
X66000Y310000D01*
X65500Y309500D02*
X65500Y33500D01*
X65000Y409000D02*
X65000Y441500D01*
X65500Y442000D01*
X290500Y414500D02*
X291000Y414000D01*
X290500Y414500D02*
X290500Y442000D01*
X291000Y396000D02*
X291000Y278000D01*
X273000Y260000D01*
X266000Y260000D01*
X176000Y238000D02*
X159000Y238000D01*
D23*
X176000Y238000D03*
X222000Y263000D03*
D24*
X228500Y269500D02*
X244000Y269500D01*
X228500Y269500D02*
X222000Y263000D01*
X66000Y352500D02*
X44500Y374000D01*
X44500Y442000D01*
X242500Y350000D02*
X242500Y333000D01*
X242500Y350000D02*
X225500Y367000D01*
X224000Y367000D01*
D23*
X224000Y367000D03*
X44500Y374000D03*
D24*
X66000Y352500D02*
X66000Y328000D01*
M02*
