G04 EAGLE Gerber RS-274X export*
G75*
%MOMM*%
%FSLAX34Y34*%
%LPD*%
%INBottom Silkscreen*%
%IPPOS*%
%AMOC8*
5,1,8,0,0,1.08239X$1,22.5*%
G01*
%ADD10C,0.609600*%
%ADD11C,0.406400*%
%ADD12C,0.152400*%


D10*
X54000Y439000D02*
X54000Y369000D01*
X71000Y386000D01*
X54000Y369000D02*
X37000Y386000D01*
X302000Y369000D02*
X302000Y439000D01*
X319000Y386000D02*
X302000Y369000D01*
X285000Y386000D01*
D11*
X86032Y380632D02*
X86032Y401968D01*
X93144Y392485D02*
X86032Y380632D01*
X93144Y392485D02*
X100256Y380632D01*
X100256Y401968D01*
X108999Y401968D02*
X123223Y380632D01*
X108999Y380632D02*
X123223Y401968D01*
X131063Y397227D02*
X135804Y380632D01*
X131063Y397227D02*
X142916Y397227D01*
X139360Y401968D02*
X139360Y392485D01*
X158358Y401968D02*
X158493Y401966D01*
X158629Y401960D01*
X158764Y401951D01*
X158898Y401937D01*
X159033Y401920D01*
X159166Y401899D01*
X159300Y401874D01*
X159432Y401845D01*
X159563Y401812D01*
X159694Y401776D01*
X159823Y401736D01*
X159951Y401692D01*
X160078Y401645D01*
X160204Y401594D01*
X160327Y401540D01*
X160450Y401482D01*
X160570Y401420D01*
X160689Y401355D01*
X160806Y401287D01*
X160921Y401215D01*
X161034Y401141D01*
X161145Y401063D01*
X161253Y400981D01*
X161359Y400897D01*
X161463Y400810D01*
X161564Y400720D01*
X161662Y400627D01*
X161758Y400531D01*
X161851Y400433D01*
X161941Y400332D01*
X162028Y400228D01*
X162112Y400122D01*
X162194Y400014D01*
X162272Y399903D01*
X162346Y399790D01*
X162418Y399675D01*
X162486Y399558D01*
X162551Y399439D01*
X162613Y399319D01*
X162671Y399196D01*
X162725Y399073D01*
X162776Y398947D01*
X162823Y398820D01*
X162867Y398692D01*
X162907Y398563D01*
X162943Y398432D01*
X162976Y398301D01*
X163005Y398169D01*
X163030Y398035D01*
X163051Y397902D01*
X163068Y397767D01*
X163082Y397633D01*
X163091Y397498D01*
X163097Y397362D01*
X163099Y397227D01*
X158358Y401968D02*
X158118Y401965D01*
X157879Y401957D01*
X157640Y401942D01*
X157401Y401922D01*
X157163Y401896D01*
X156925Y401865D01*
X156688Y401828D01*
X156452Y401785D01*
X156218Y401737D01*
X155984Y401683D01*
X155752Y401623D01*
X155522Y401558D01*
X155293Y401487D01*
X155065Y401411D01*
X154840Y401330D01*
X154617Y401243D01*
X154395Y401151D01*
X154176Y401053D01*
X153960Y400951D01*
X153746Y400843D01*
X153534Y400730D01*
X153326Y400612D01*
X153120Y400489D01*
X152917Y400362D01*
X152718Y400229D01*
X152521Y400092D01*
X152328Y399950D01*
X152139Y399803D01*
X151953Y399652D01*
X151770Y399497D01*
X151592Y399337D01*
X151417Y399173D01*
X151246Y399005D01*
X151839Y385373D02*
X151841Y385238D01*
X151847Y385102D01*
X151856Y384967D01*
X151870Y384833D01*
X151887Y384698D01*
X151908Y384565D01*
X151933Y384431D01*
X151962Y384299D01*
X151995Y384168D01*
X152031Y384037D01*
X152071Y383908D01*
X152115Y383780D01*
X152162Y383653D01*
X152213Y383527D01*
X152267Y383404D01*
X152325Y383281D01*
X152387Y383161D01*
X152452Y383042D01*
X152520Y382925D01*
X152592Y382810D01*
X152666Y382697D01*
X152744Y382586D01*
X152826Y382478D01*
X152910Y382372D01*
X152997Y382268D01*
X153087Y382167D01*
X153180Y382069D01*
X153276Y381973D01*
X153374Y381880D01*
X153475Y381790D01*
X153579Y381703D01*
X153685Y381619D01*
X153793Y381537D01*
X153904Y381459D01*
X154017Y381385D01*
X154132Y381313D01*
X154249Y381245D01*
X154368Y381180D01*
X154488Y381118D01*
X154611Y381060D01*
X154734Y381006D01*
X154860Y380955D01*
X154987Y380908D01*
X155115Y380864D01*
X155244Y380824D01*
X155375Y380788D01*
X155506Y380755D01*
X155638Y380726D01*
X155772Y380701D01*
X155905Y380680D01*
X156040Y380663D01*
X156174Y380649D01*
X156309Y380640D01*
X156445Y380634D01*
X156580Y380632D01*
X156792Y380635D01*
X157004Y380642D01*
X157215Y380655D01*
X157426Y380672D01*
X157637Y380695D01*
X157847Y380723D01*
X158056Y380755D01*
X158265Y380793D01*
X158472Y380836D01*
X158679Y380883D01*
X158884Y380936D01*
X159088Y380993D01*
X159291Y381055D01*
X159492Y381122D01*
X159691Y381194D01*
X159888Y381271D01*
X160084Y381352D01*
X160278Y381438D01*
X160470Y381528D01*
X160659Y381623D01*
X160846Y381722D01*
X161031Y381826D01*
X161213Y381935D01*
X161392Y382047D01*
X161569Y382164D01*
X161743Y382285D01*
X161914Y382410D01*
X154209Y389521D02*
X154094Y389451D01*
X153981Y389378D01*
X153869Y389301D01*
X153760Y389221D01*
X153653Y389139D01*
X153549Y389053D01*
X153447Y388964D01*
X153347Y388873D01*
X153250Y388779D01*
X153156Y388682D01*
X153065Y388583D01*
X152976Y388481D01*
X152890Y388376D01*
X152808Y388269D01*
X152728Y388160D01*
X152651Y388049D01*
X152578Y387936D01*
X152507Y387820D01*
X152440Y387703D01*
X152377Y387584D01*
X152316Y387463D01*
X152259Y387340D01*
X152206Y387216D01*
X152156Y387091D01*
X152109Y386964D01*
X152067Y386836D01*
X152027Y386707D01*
X151992Y386576D01*
X151960Y386445D01*
X151932Y386313D01*
X151907Y386180D01*
X151886Y386046D01*
X151869Y385912D01*
X151856Y385778D01*
X151847Y385643D01*
X151841Y385508D01*
X151839Y385373D01*
X160728Y393079D02*
X160843Y393149D01*
X160956Y393222D01*
X161068Y393299D01*
X161177Y393379D01*
X161284Y393461D01*
X161388Y393547D01*
X161490Y393636D01*
X161590Y393727D01*
X161687Y393821D01*
X161781Y393918D01*
X161872Y394017D01*
X161961Y394119D01*
X162047Y394224D01*
X162129Y394331D01*
X162209Y394440D01*
X162286Y394551D01*
X162359Y394664D01*
X162430Y394780D01*
X162497Y394897D01*
X162560Y395016D01*
X162621Y395137D01*
X162678Y395260D01*
X162731Y395384D01*
X162781Y395509D01*
X162828Y395636D01*
X162870Y395764D01*
X162910Y395893D01*
X162945Y396024D01*
X162977Y396155D01*
X163005Y396287D01*
X163030Y396420D01*
X163051Y396554D01*
X163068Y396688D01*
X163081Y396822D01*
X163090Y396957D01*
X163096Y397092D01*
X163098Y397227D01*
X160728Y393078D02*
X154209Y389522D01*
X173179Y380632D02*
X173179Y401968D01*
X170809Y401968D02*
X175550Y401968D01*
X175550Y380632D02*
X170809Y380632D01*
X183956Y386559D02*
X183956Y396041D01*
X183955Y386559D02*
X183957Y386406D01*
X183963Y386254D01*
X183973Y386102D01*
X183986Y385950D01*
X184004Y385798D01*
X184026Y385647D01*
X184051Y385496D01*
X184080Y385347D01*
X184113Y385198D01*
X184150Y385050D01*
X184191Y384902D01*
X184236Y384757D01*
X184284Y384612D01*
X184336Y384468D01*
X184392Y384326D01*
X184451Y384186D01*
X184514Y384046D01*
X184580Y383909D01*
X184650Y383773D01*
X184724Y383640D01*
X184801Y383508D01*
X184881Y383378D01*
X184965Y383250D01*
X185051Y383125D01*
X185141Y383002D01*
X185235Y382881D01*
X185331Y382762D01*
X185430Y382646D01*
X185532Y382533D01*
X185637Y382422D01*
X185745Y382314D01*
X185856Y382209D01*
X185969Y382107D01*
X186085Y382008D01*
X186204Y381912D01*
X186325Y381818D01*
X186448Y381728D01*
X186573Y381642D01*
X186701Y381558D01*
X186831Y381478D01*
X186963Y381401D01*
X187096Y381327D01*
X187232Y381257D01*
X187369Y381191D01*
X187509Y381128D01*
X187649Y381069D01*
X187791Y381013D01*
X187935Y380961D01*
X188080Y380913D01*
X188225Y380868D01*
X188373Y380827D01*
X188521Y380790D01*
X188670Y380757D01*
X188819Y380728D01*
X188970Y380703D01*
X189121Y380681D01*
X189273Y380663D01*
X189425Y380650D01*
X189577Y380640D01*
X189729Y380634D01*
X189882Y380632D01*
X190035Y380634D01*
X190187Y380640D01*
X190339Y380650D01*
X190491Y380663D01*
X190643Y380681D01*
X190794Y380703D01*
X190945Y380728D01*
X191094Y380757D01*
X191243Y380790D01*
X191391Y380827D01*
X191539Y380868D01*
X191684Y380913D01*
X191829Y380961D01*
X191973Y381013D01*
X192115Y381069D01*
X192255Y381128D01*
X192395Y381191D01*
X192532Y381257D01*
X192668Y381327D01*
X192801Y381401D01*
X192933Y381478D01*
X193063Y381558D01*
X193191Y381642D01*
X193316Y381728D01*
X193439Y381818D01*
X193560Y381912D01*
X193679Y382008D01*
X193795Y382107D01*
X193908Y382209D01*
X194019Y382314D01*
X194127Y382422D01*
X194232Y382533D01*
X194334Y382646D01*
X194433Y382762D01*
X194529Y382881D01*
X194623Y383002D01*
X194713Y383125D01*
X194799Y383250D01*
X194883Y383378D01*
X194963Y383508D01*
X195040Y383640D01*
X195114Y383773D01*
X195184Y383909D01*
X195250Y384046D01*
X195313Y384186D01*
X195372Y384326D01*
X195428Y384468D01*
X195480Y384612D01*
X195528Y384757D01*
X195573Y384902D01*
X195614Y385050D01*
X195651Y385198D01*
X195684Y385347D01*
X195713Y385496D01*
X195738Y385647D01*
X195760Y385798D01*
X195778Y385950D01*
X195791Y386102D01*
X195801Y386254D01*
X195807Y386406D01*
X195809Y386559D01*
X195809Y396041D01*
X195807Y396194D01*
X195801Y396346D01*
X195791Y396498D01*
X195778Y396650D01*
X195760Y396802D01*
X195738Y396953D01*
X195713Y397104D01*
X195684Y397253D01*
X195651Y397402D01*
X195614Y397550D01*
X195573Y397698D01*
X195528Y397843D01*
X195480Y397988D01*
X195428Y398132D01*
X195372Y398274D01*
X195313Y398414D01*
X195250Y398554D01*
X195184Y398691D01*
X195114Y398827D01*
X195040Y398960D01*
X194963Y399092D01*
X194883Y399222D01*
X194799Y399350D01*
X194713Y399475D01*
X194623Y399598D01*
X194529Y399719D01*
X194433Y399838D01*
X194334Y399954D01*
X194232Y400067D01*
X194127Y400178D01*
X194019Y400286D01*
X193908Y400391D01*
X193795Y400493D01*
X193679Y400592D01*
X193560Y400688D01*
X193439Y400782D01*
X193316Y400872D01*
X193191Y400958D01*
X193063Y401042D01*
X192933Y401122D01*
X192801Y401199D01*
X192668Y401273D01*
X192532Y401343D01*
X192395Y401409D01*
X192255Y401472D01*
X192115Y401531D01*
X191973Y401587D01*
X191829Y401639D01*
X191684Y401687D01*
X191539Y401732D01*
X191391Y401773D01*
X191243Y401810D01*
X191094Y401843D01*
X190945Y401872D01*
X190794Y401897D01*
X190643Y401919D01*
X190491Y401937D01*
X190339Y401950D01*
X190187Y401960D01*
X190035Y401966D01*
X189882Y401968D01*
X189729Y401966D01*
X189577Y401960D01*
X189425Y401950D01*
X189273Y401937D01*
X189121Y401919D01*
X188970Y401897D01*
X188819Y401872D01*
X188670Y401843D01*
X188521Y401810D01*
X188373Y401773D01*
X188225Y401732D01*
X188080Y401687D01*
X187935Y401639D01*
X187791Y401587D01*
X187649Y401531D01*
X187509Y401472D01*
X187369Y401409D01*
X187232Y401343D01*
X187096Y401273D01*
X186963Y401199D01*
X186831Y401122D01*
X186701Y401042D01*
X186573Y400958D01*
X186448Y400872D01*
X186325Y400782D01*
X186204Y400688D01*
X186085Y400592D01*
X185969Y400493D01*
X185856Y400391D01*
X185745Y400286D01*
X185637Y400178D01*
X185532Y400067D01*
X185430Y399954D01*
X185331Y399838D01*
X185235Y399719D01*
X185141Y399598D01*
X185051Y399475D01*
X184965Y399350D01*
X184881Y399222D01*
X184801Y399092D01*
X184724Y398960D01*
X184650Y398827D01*
X184580Y398691D01*
X184514Y398554D01*
X184451Y398414D01*
X184392Y398274D01*
X184336Y398132D01*
X184284Y397988D01*
X184236Y397843D01*
X184191Y397698D01*
X184150Y397550D01*
X184113Y397402D01*
X184080Y397253D01*
X184051Y397104D01*
X184026Y396953D01*
X184004Y396802D01*
X183986Y396650D01*
X183973Y396498D01*
X183963Y396346D01*
X183957Y396194D01*
X183955Y396041D01*
D12*
X112762Y406602D02*
X112762Y415238D01*
X112762Y406602D02*
X115161Y406602D01*
X115258Y406604D01*
X115354Y406610D01*
X115450Y406619D01*
X115546Y406633D01*
X115641Y406650D01*
X115735Y406672D01*
X115828Y406697D01*
X115921Y406725D01*
X116012Y406758D01*
X116101Y406794D01*
X116189Y406834D01*
X116276Y406877D01*
X116361Y406923D01*
X116443Y406973D01*
X116524Y407027D01*
X116602Y407083D01*
X116678Y407143D01*
X116752Y407205D01*
X116823Y407271D01*
X116891Y407339D01*
X116957Y407410D01*
X117019Y407484D01*
X117079Y407560D01*
X117135Y407638D01*
X117189Y407719D01*
X117239Y407802D01*
X117285Y407886D01*
X117328Y407973D01*
X117368Y408061D01*
X117404Y408150D01*
X117437Y408241D01*
X117465Y408334D01*
X117490Y408427D01*
X117512Y408521D01*
X117529Y408616D01*
X117543Y408712D01*
X117552Y408808D01*
X117558Y408904D01*
X117560Y409001D01*
X117558Y409098D01*
X117552Y409194D01*
X117543Y409290D01*
X117529Y409386D01*
X117512Y409481D01*
X117490Y409575D01*
X117465Y409668D01*
X117437Y409761D01*
X117404Y409852D01*
X117368Y409941D01*
X117328Y410029D01*
X117285Y410116D01*
X117239Y410201D01*
X117189Y410283D01*
X117135Y410364D01*
X117079Y410442D01*
X117019Y410518D01*
X116957Y410592D01*
X116891Y410663D01*
X116823Y410731D01*
X116752Y410797D01*
X116678Y410859D01*
X116602Y410919D01*
X116524Y410975D01*
X116443Y411029D01*
X116361Y411079D01*
X116276Y411125D01*
X116189Y411168D01*
X116101Y411208D01*
X116012Y411244D01*
X115921Y411277D01*
X115828Y411305D01*
X115735Y411330D01*
X115641Y411352D01*
X115546Y411369D01*
X115450Y411383D01*
X115354Y411392D01*
X115258Y411398D01*
X115161Y411400D01*
X112762Y411400D01*
X115641Y411400D02*
X117560Y415238D01*
X125485Y410440D02*
X126924Y410440D01*
X126924Y415238D01*
X124045Y415238D01*
X123959Y415236D01*
X123873Y415230D01*
X123787Y415221D01*
X123702Y415207D01*
X123618Y415190D01*
X123534Y415169D01*
X123452Y415144D01*
X123371Y415116D01*
X123291Y415084D01*
X123212Y415048D01*
X123136Y415009D01*
X123061Y414966D01*
X122988Y414921D01*
X122917Y414872D01*
X122849Y414819D01*
X122782Y414764D01*
X122719Y414706D01*
X122658Y414645D01*
X122600Y414582D01*
X122545Y414515D01*
X122493Y414447D01*
X122443Y414376D01*
X122398Y414303D01*
X122355Y414228D01*
X122316Y414152D01*
X122280Y414073D01*
X122248Y413993D01*
X122220Y413912D01*
X122195Y413830D01*
X122174Y413746D01*
X122157Y413662D01*
X122143Y413577D01*
X122134Y413491D01*
X122128Y413405D01*
X122126Y413319D01*
X122126Y408521D01*
X122128Y408435D01*
X122134Y408349D01*
X122143Y408263D01*
X122157Y408178D01*
X122174Y408094D01*
X122195Y408010D01*
X122220Y407928D01*
X122248Y407847D01*
X122280Y407767D01*
X122316Y407688D01*
X122355Y407612D01*
X122398Y407537D01*
X122443Y407464D01*
X122492Y407393D01*
X122545Y407325D01*
X122600Y407258D01*
X122658Y407195D01*
X122719Y407134D01*
X122782Y407076D01*
X122849Y407021D01*
X122917Y406969D01*
X122988Y406919D01*
X123061Y406874D01*
X123136Y406831D01*
X123212Y406792D01*
X123291Y406756D01*
X123371Y406724D01*
X123452Y406696D01*
X123534Y406671D01*
X123618Y406650D01*
X123702Y406633D01*
X123787Y406619D01*
X123873Y406610D01*
X123959Y406604D01*
X124045Y406602D01*
X126924Y406602D01*
X131964Y406602D02*
X131964Y415238D01*
X131964Y406602D02*
X134363Y406602D01*
X134460Y406604D01*
X134556Y406610D01*
X134652Y406619D01*
X134748Y406633D01*
X134843Y406650D01*
X134937Y406672D01*
X135030Y406697D01*
X135123Y406725D01*
X135214Y406758D01*
X135303Y406794D01*
X135391Y406834D01*
X135478Y406877D01*
X135563Y406923D01*
X135645Y406973D01*
X135726Y407027D01*
X135804Y407083D01*
X135880Y407143D01*
X135954Y407205D01*
X136025Y407271D01*
X136093Y407339D01*
X136159Y407410D01*
X136221Y407484D01*
X136281Y407560D01*
X136337Y407638D01*
X136391Y407719D01*
X136441Y407802D01*
X136487Y407886D01*
X136530Y407973D01*
X136570Y408061D01*
X136606Y408150D01*
X136639Y408241D01*
X136667Y408334D01*
X136692Y408427D01*
X136714Y408521D01*
X136731Y408616D01*
X136745Y408712D01*
X136754Y408808D01*
X136760Y408904D01*
X136762Y409001D01*
X136760Y409098D01*
X136754Y409194D01*
X136745Y409290D01*
X136731Y409386D01*
X136714Y409481D01*
X136692Y409575D01*
X136667Y409668D01*
X136639Y409761D01*
X136606Y409852D01*
X136570Y409941D01*
X136530Y410029D01*
X136487Y410116D01*
X136441Y410201D01*
X136391Y410283D01*
X136337Y410364D01*
X136281Y410442D01*
X136221Y410518D01*
X136159Y410592D01*
X136093Y410663D01*
X136025Y410731D01*
X135954Y410797D01*
X135880Y410859D01*
X135804Y410919D01*
X135726Y410975D01*
X135645Y411029D01*
X135563Y411079D01*
X135478Y411125D01*
X135391Y411168D01*
X135303Y411208D01*
X135214Y411244D01*
X135123Y411277D01*
X135030Y411305D01*
X134937Y411330D01*
X134843Y411352D01*
X134748Y411369D01*
X134652Y411383D01*
X134556Y411392D01*
X134460Y411398D01*
X134363Y411400D01*
X131964Y411400D01*
X134843Y411400D02*
X136762Y415238D01*
X148299Y415238D02*
X145421Y406602D01*
X151178Y406602D02*
X148299Y415238D01*
X156354Y415238D02*
X158753Y415238D01*
X156354Y415238D02*
X156279Y415236D01*
X156204Y415230D01*
X156129Y415220D01*
X156055Y415207D01*
X155982Y415189D01*
X155909Y415168D01*
X155838Y415142D01*
X155769Y415114D01*
X155701Y415081D01*
X155635Y415045D01*
X155570Y415006D01*
X155508Y414963D01*
X155448Y414917D01*
X155391Y414868D01*
X155336Y414817D01*
X155285Y414762D01*
X155236Y414705D01*
X155190Y414645D01*
X155147Y414583D01*
X155108Y414519D01*
X155072Y414452D01*
X155039Y414384D01*
X155011Y414315D01*
X154985Y414244D01*
X154964Y414171D01*
X154946Y414098D01*
X154933Y414024D01*
X154923Y413949D01*
X154917Y413874D01*
X154915Y413799D01*
X154915Y411400D01*
X154917Y411314D01*
X154923Y411228D01*
X154932Y411142D01*
X154946Y411057D01*
X154963Y410973D01*
X154984Y410889D01*
X155009Y410807D01*
X155037Y410726D01*
X155069Y410646D01*
X155105Y410567D01*
X155144Y410491D01*
X155187Y410416D01*
X155232Y410343D01*
X155281Y410272D01*
X155334Y410204D01*
X155389Y410137D01*
X155447Y410074D01*
X155508Y410013D01*
X155571Y409955D01*
X155638Y409900D01*
X155706Y409847D01*
X155777Y409798D01*
X155850Y409753D01*
X155925Y409710D01*
X156001Y409671D01*
X156080Y409635D01*
X156160Y409603D01*
X156241Y409575D01*
X156323Y409550D01*
X156407Y409529D01*
X156491Y409512D01*
X156576Y409498D01*
X156662Y409489D01*
X156748Y409483D01*
X156834Y409481D01*
X156920Y409483D01*
X157006Y409489D01*
X157092Y409498D01*
X157177Y409512D01*
X157261Y409529D01*
X157345Y409550D01*
X157427Y409575D01*
X157508Y409603D01*
X157588Y409635D01*
X157667Y409671D01*
X157743Y409710D01*
X157818Y409753D01*
X157891Y409798D01*
X157962Y409847D01*
X158030Y409900D01*
X158097Y409955D01*
X158160Y410013D01*
X158221Y410074D01*
X158279Y410137D01*
X158334Y410204D01*
X158387Y410272D01*
X158436Y410343D01*
X158481Y410416D01*
X158524Y410491D01*
X158563Y410567D01*
X158599Y410646D01*
X158631Y410726D01*
X158659Y410807D01*
X158684Y410889D01*
X158705Y410973D01*
X158722Y411057D01*
X158736Y411142D01*
X158745Y411228D01*
X158751Y411314D01*
X158753Y411400D01*
X158753Y412359D01*
X154915Y412359D01*
X163220Y415238D02*
X163220Y409481D01*
X166099Y409481D01*
X166099Y410440D01*
X169960Y411880D02*
X172359Y412839D01*
X169960Y411880D02*
X169897Y411853D01*
X169835Y411822D01*
X169775Y411787D01*
X169717Y411750D01*
X169661Y411709D01*
X169608Y411666D01*
X169557Y411619D01*
X169509Y411570D01*
X169463Y411518D01*
X169421Y411463D01*
X169381Y411406D01*
X169345Y411348D01*
X169312Y411287D01*
X169283Y411224D01*
X169257Y411161D01*
X169234Y411095D01*
X169216Y411029D01*
X169201Y410961D01*
X169189Y410893D01*
X169182Y410825D01*
X169178Y410756D01*
X169179Y410687D01*
X169183Y410618D01*
X169191Y410549D01*
X169202Y410481D01*
X169218Y410414D01*
X169237Y410347D01*
X169259Y410282D01*
X169286Y410218D01*
X169316Y410156D01*
X169349Y410096D01*
X169386Y410037D01*
X169425Y409981D01*
X169468Y409926D01*
X169514Y409875D01*
X169562Y409826D01*
X169614Y409779D01*
X169667Y409736D01*
X169723Y409696D01*
X169782Y409659D01*
X169842Y409625D01*
X169904Y409594D01*
X169967Y409567D01*
X170032Y409544D01*
X170098Y409524D01*
X170165Y409508D01*
X170233Y409495D01*
X170302Y409487D01*
X170371Y409482D01*
X170440Y409481D01*
X170579Y409484D01*
X170718Y409492D01*
X170857Y409503D01*
X170995Y409517D01*
X171133Y409535D01*
X171271Y409556D01*
X171408Y409581D01*
X171544Y409610D01*
X171680Y409642D01*
X171814Y409677D01*
X171948Y409716D01*
X172081Y409758D01*
X172212Y409804D01*
X172342Y409853D01*
X172471Y409905D01*
X172599Y409960D01*
X172359Y412839D02*
X172422Y412866D01*
X172484Y412897D01*
X172544Y412932D01*
X172602Y412969D01*
X172658Y413010D01*
X172711Y413053D01*
X172762Y413100D01*
X172810Y413149D01*
X172856Y413201D01*
X172898Y413256D01*
X172938Y413313D01*
X172974Y413371D01*
X173007Y413432D01*
X173036Y413494D01*
X173062Y413558D01*
X173085Y413624D01*
X173103Y413690D01*
X173118Y413758D01*
X173130Y413826D01*
X173137Y413894D01*
X173141Y413963D01*
X173140Y414032D01*
X173136Y414101D01*
X173128Y414170D01*
X173117Y414238D01*
X173101Y414305D01*
X173082Y414372D01*
X173060Y414437D01*
X173033Y414501D01*
X173003Y414563D01*
X172970Y414623D01*
X172933Y414682D01*
X172894Y414738D01*
X172851Y414793D01*
X172805Y414844D01*
X172757Y414893D01*
X172705Y414940D01*
X172652Y414983D01*
X172596Y415023D01*
X172537Y415060D01*
X172477Y415094D01*
X172415Y415125D01*
X172352Y415152D01*
X172287Y415175D01*
X172221Y415195D01*
X172154Y415211D01*
X172086Y415224D01*
X172017Y415232D01*
X171948Y415237D01*
X171879Y415238D01*
X171686Y415233D01*
X171494Y415224D01*
X171302Y415209D01*
X171111Y415191D01*
X170920Y415168D01*
X170729Y415140D01*
X170539Y415108D01*
X170350Y415071D01*
X170162Y415030D01*
X169975Y414984D01*
X169790Y414934D01*
X169605Y414880D01*
X169422Y414821D01*
X169240Y414758D01*
X176950Y415238D02*
X176950Y409481D01*
X176710Y407082D02*
X176710Y406602D01*
X177190Y406602D01*
X177190Y407082D01*
X176710Y407082D01*
X180822Y411400D02*
X180822Y413319D01*
X180822Y411400D02*
X180824Y411314D01*
X180830Y411228D01*
X180839Y411142D01*
X180853Y411057D01*
X180870Y410973D01*
X180891Y410889D01*
X180916Y410807D01*
X180944Y410726D01*
X180976Y410646D01*
X181012Y410567D01*
X181051Y410491D01*
X181094Y410416D01*
X181139Y410343D01*
X181188Y410272D01*
X181241Y410204D01*
X181296Y410137D01*
X181354Y410074D01*
X181415Y410013D01*
X181478Y409955D01*
X181545Y409900D01*
X181613Y409847D01*
X181684Y409798D01*
X181757Y409753D01*
X181832Y409710D01*
X181908Y409671D01*
X181987Y409635D01*
X182067Y409603D01*
X182148Y409575D01*
X182230Y409550D01*
X182314Y409529D01*
X182398Y409512D01*
X182483Y409498D01*
X182569Y409489D01*
X182655Y409483D01*
X182741Y409481D01*
X182827Y409483D01*
X182913Y409489D01*
X182999Y409498D01*
X183084Y409512D01*
X183168Y409529D01*
X183252Y409550D01*
X183334Y409575D01*
X183415Y409603D01*
X183495Y409635D01*
X183574Y409671D01*
X183650Y409710D01*
X183725Y409753D01*
X183798Y409798D01*
X183869Y409847D01*
X183937Y409900D01*
X184004Y409955D01*
X184067Y410013D01*
X184128Y410074D01*
X184186Y410137D01*
X184241Y410204D01*
X184294Y410272D01*
X184343Y410343D01*
X184388Y410416D01*
X184431Y410491D01*
X184470Y410567D01*
X184506Y410646D01*
X184538Y410726D01*
X184566Y410807D01*
X184591Y410889D01*
X184612Y410973D01*
X184629Y411057D01*
X184643Y411142D01*
X184652Y411228D01*
X184658Y411314D01*
X184660Y411400D01*
X184661Y411400D02*
X184661Y413319D01*
X184660Y413319D02*
X184658Y413405D01*
X184652Y413491D01*
X184643Y413577D01*
X184629Y413662D01*
X184612Y413746D01*
X184591Y413830D01*
X184566Y413912D01*
X184538Y413993D01*
X184506Y414073D01*
X184470Y414152D01*
X184431Y414228D01*
X184388Y414303D01*
X184343Y414376D01*
X184294Y414447D01*
X184241Y414515D01*
X184186Y414582D01*
X184128Y414645D01*
X184067Y414706D01*
X184004Y414764D01*
X183937Y414819D01*
X183869Y414872D01*
X183798Y414921D01*
X183725Y414966D01*
X183650Y415009D01*
X183574Y415048D01*
X183495Y415084D01*
X183415Y415116D01*
X183334Y415144D01*
X183252Y415169D01*
X183168Y415190D01*
X183084Y415207D01*
X182999Y415221D01*
X182913Y415230D01*
X182827Y415236D01*
X182741Y415238D01*
X182655Y415236D01*
X182569Y415230D01*
X182483Y415221D01*
X182398Y415207D01*
X182314Y415190D01*
X182230Y415169D01*
X182148Y415144D01*
X182067Y415116D01*
X181987Y415084D01*
X181908Y415048D01*
X181832Y415009D01*
X181757Y414966D01*
X181684Y414921D01*
X181613Y414872D01*
X181545Y414819D01*
X181478Y414764D01*
X181415Y414706D01*
X181354Y414645D01*
X181296Y414582D01*
X181241Y414515D01*
X181188Y414447D01*
X181139Y414376D01*
X181094Y414303D01*
X181051Y414228D01*
X181012Y414152D01*
X180976Y414073D01*
X180944Y413993D01*
X180916Y413912D01*
X180891Y413830D01*
X180870Y413746D01*
X180853Y413662D01*
X180839Y413577D01*
X180830Y413491D01*
X180824Y413405D01*
X180822Y413319D01*
X189052Y415238D02*
X189052Y409481D01*
X191451Y409481D01*
X191526Y409483D01*
X191601Y409489D01*
X191676Y409499D01*
X191750Y409512D01*
X191823Y409530D01*
X191896Y409551D01*
X191967Y409577D01*
X192036Y409605D01*
X192104Y409638D01*
X192170Y409674D01*
X192235Y409713D01*
X192297Y409756D01*
X192357Y409802D01*
X192414Y409851D01*
X192469Y409902D01*
X192520Y409957D01*
X192569Y410014D01*
X192615Y410074D01*
X192658Y410136D01*
X192697Y410200D01*
X192733Y410267D01*
X192766Y410335D01*
X192794Y410404D01*
X192820Y410475D01*
X192841Y410548D01*
X192859Y410621D01*
X192872Y410695D01*
X192882Y410770D01*
X192888Y410845D01*
X192890Y410920D01*
X192890Y415238D01*
M02*
