G04 EAGLE Gerber RS-274X export*
G75*
%MOMM*%
%FSLAX34Y34*%
%LPD*%
%INBottom Copper*%
%IPPOS*%
%AMOC8*
5,1,8,0,0,1.08239X$1,22.5*%
G01*
%ADD10C,0.706400*%
%ADD11C,0.203200*%

G36*
X130598Y10164D02*
X130598Y10164D01*
X130617Y10162D01*
X130719Y10184D01*
X130821Y10200D01*
X130838Y10210D01*
X130858Y10214D01*
X130947Y10267D01*
X131038Y10316D01*
X131052Y10330D01*
X131069Y10340D01*
X131136Y10419D01*
X131208Y10494D01*
X131216Y10512D01*
X131229Y10527D01*
X131268Y10623D01*
X131311Y10717D01*
X131313Y10737D01*
X131321Y10755D01*
X131339Y10922D01*
X131339Y91900D01*
X133099Y96149D01*
X136351Y99401D01*
X140600Y101161D01*
X158400Y101161D01*
X162649Y99401D01*
X165901Y96149D01*
X167661Y91900D01*
X167661Y10922D01*
X167664Y10902D01*
X167662Y10883D01*
X167684Y10781D01*
X167700Y10679D01*
X167710Y10662D01*
X167714Y10642D01*
X167767Y10553D01*
X167816Y10462D01*
X167830Y10448D01*
X167840Y10431D01*
X167919Y10364D01*
X167994Y10292D01*
X168012Y10284D01*
X168027Y10271D01*
X168123Y10232D01*
X168217Y10189D01*
X168237Y10187D01*
X168255Y10179D01*
X168422Y10161D01*
X235578Y10161D01*
X235598Y10164D01*
X235617Y10162D01*
X235719Y10184D01*
X235821Y10200D01*
X235838Y10210D01*
X235858Y10214D01*
X235947Y10267D01*
X236038Y10316D01*
X236052Y10330D01*
X236069Y10340D01*
X236136Y10419D01*
X236208Y10494D01*
X236216Y10512D01*
X236229Y10527D01*
X236268Y10623D01*
X236311Y10717D01*
X236313Y10737D01*
X236321Y10755D01*
X236339Y10922D01*
X236339Y91900D01*
X238099Y96149D01*
X241351Y99401D01*
X245600Y101161D01*
X263400Y101161D01*
X267649Y99401D01*
X270901Y96149D01*
X272661Y91900D01*
X272661Y10922D01*
X272664Y10902D01*
X272662Y10883D01*
X272684Y10781D01*
X272700Y10679D01*
X272710Y10662D01*
X272714Y10642D01*
X272767Y10553D01*
X272816Y10462D01*
X272830Y10448D01*
X272840Y10431D01*
X272919Y10364D01*
X272994Y10292D01*
X273012Y10284D01*
X273027Y10271D01*
X273123Y10232D01*
X273217Y10189D01*
X273237Y10187D01*
X273255Y10179D01*
X273422Y10161D01*
X316078Y10161D01*
X316098Y10164D01*
X316117Y10162D01*
X316219Y10184D01*
X316321Y10200D01*
X316338Y10210D01*
X316358Y10214D01*
X316447Y10267D01*
X316538Y10316D01*
X316552Y10330D01*
X316569Y10340D01*
X316636Y10419D01*
X316708Y10494D01*
X316716Y10512D01*
X316729Y10527D01*
X316768Y10623D01*
X316811Y10717D01*
X316813Y10737D01*
X316821Y10755D01*
X316839Y10922D01*
X316839Y74021D01*
X318386Y77756D01*
X321244Y80614D01*
X324979Y82161D01*
X334078Y82161D01*
X334098Y82164D01*
X334117Y82162D01*
X334219Y82184D01*
X334321Y82200D01*
X334338Y82210D01*
X334358Y82214D01*
X334447Y82267D01*
X334538Y82316D01*
X334552Y82330D01*
X334569Y82340D01*
X334636Y82419D01*
X334708Y82494D01*
X334716Y82512D01*
X334729Y82527D01*
X334768Y82623D01*
X334811Y82717D01*
X334813Y82737D01*
X334821Y82755D01*
X334839Y82922D01*
X334839Y404078D01*
X334836Y404098D01*
X334838Y404117D01*
X334816Y404219D01*
X334800Y404321D01*
X334790Y404338D01*
X334786Y404358D01*
X334733Y404447D01*
X334684Y404538D01*
X334670Y404552D01*
X334660Y404569D01*
X334581Y404636D01*
X334506Y404708D01*
X334488Y404716D01*
X334473Y404729D01*
X334377Y404768D01*
X334283Y404811D01*
X334263Y404813D01*
X334245Y404821D01*
X334078Y404839D01*
X329979Y404839D01*
X326244Y406386D01*
X323386Y409244D01*
X321839Y412979D01*
X321839Y442078D01*
X321836Y442098D01*
X321838Y442117D01*
X321816Y442219D01*
X321800Y442321D01*
X321790Y442338D01*
X321786Y442358D01*
X321733Y442447D01*
X321684Y442538D01*
X321670Y442552D01*
X321660Y442569D01*
X321581Y442636D01*
X321506Y442708D01*
X321488Y442716D01*
X321473Y442729D01*
X321377Y442768D01*
X321283Y442811D01*
X321263Y442813D01*
X321245Y442821D01*
X321078Y442839D01*
X240876Y442839D01*
X240831Y442832D01*
X240785Y442834D01*
X240710Y442812D01*
X240634Y442800D01*
X240593Y442778D01*
X240549Y442765D01*
X240485Y442721D01*
X240416Y442684D01*
X240385Y442651D01*
X240347Y442625D01*
X240301Y442563D01*
X240247Y442506D01*
X240228Y442464D01*
X240200Y442427D01*
X240176Y442353D01*
X240143Y442283D01*
X240138Y442237D01*
X240124Y442194D01*
X240125Y442116D01*
X240116Y442039D01*
X240126Y441994D01*
X240126Y441948D01*
X240161Y441830D01*
X240161Y436183D01*
X238005Y430979D01*
X234021Y426995D01*
X228817Y424839D01*
X223183Y424839D01*
X217979Y426995D01*
X213995Y430979D01*
X211839Y436183D01*
X211839Y441836D01*
X211857Y441873D01*
X211865Y441950D01*
X211883Y442026D01*
X211879Y442072D01*
X211884Y442117D01*
X211867Y442194D01*
X211860Y442271D01*
X211841Y442313D01*
X211832Y442358D01*
X211792Y442425D01*
X211760Y442496D01*
X211729Y442530D01*
X211705Y442569D01*
X211646Y442620D01*
X211594Y442677D01*
X211553Y442699D01*
X211518Y442729D01*
X211446Y442758D01*
X211378Y442795D01*
X211333Y442804D01*
X211290Y442821D01*
X211155Y442836D01*
X211136Y442839D01*
X211131Y442838D01*
X211124Y442839D01*
X160876Y442839D01*
X160831Y442832D01*
X160785Y442834D01*
X160710Y442812D01*
X160634Y442800D01*
X160593Y442778D01*
X160549Y442765D01*
X160485Y442721D01*
X160416Y442684D01*
X160385Y442651D01*
X160347Y442625D01*
X160301Y442563D01*
X160247Y442506D01*
X160228Y442464D01*
X160200Y442427D01*
X160176Y442353D01*
X160143Y442283D01*
X160138Y442237D01*
X160124Y442194D01*
X160125Y442116D01*
X160116Y442039D01*
X160126Y441994D01*
X160126Y441948D01*
X160161Y441830D01*
X160161Y436183D01*
X158005Y430979D01*
X154021Y426995D01*
X148817Y424839D01*
X143183Y424839D01*
X137979Y426995D01*
X133995Y430979D01*
X131839Y436183D01*
X131839Y441836D01*
X131857Y441873D01*
X131865Y441950D01*
X131883Y442026D01*
X131879Y442072D01*
X131884Y442117D01*
X131867Y442194D01*
X131860Y442271D01*
X131841Y442313D01*
X131832Y442358D01*
X131792Y442425D01*
X131760Y442496D01*
X131729Y442530D01*
X131705Y442569D01*
X131646Y442620D01*
X131594Y442677D01*
X131553Y442699D01*
X131518Y442729D01*
X131446Y442758D01*
X131378Y442795D01*
X131333Y442804D01*
X131290Y442821D01*
X131155Y442836D01*
X131136Y442839D01*
X131131Y442838D01*
X131124Y442839D01*
X35922Y442839D01*
X35902Y442836D01*
X35883Y442838D01*
X35781Y442816D01*
X35679Y442800D01*
X35662Y442790D01*
X35642Y442786D01*
X35553Y442733D01*
X35462Y442684D01*
X35448Y442670D01*
X35431Y442660D01*
X35364Y442581D01*
X35292Y442506D01*
X35284Y442488D01*
X35271Y442473D01*
X35232Y442377D01*
X35189Y442283D01*
X35187Y442263D01*
X35179Y442245D01*
X35161Y442078D01*
X35161Y412979D01*
X33614Y409244D01*
X30756Y406386D01*
X27021Y404839D01*
X20922Y404839D01*
X20902Y404836D01*
X20883Y404838D01*
X20781Y404816D01*
X20679Y404800D01*
X20662Y404790D01*
X20642Y404786D01*
X20553Y404733D01*
X20462Y404684D01*
X20448Y404670D01*
X20431Y404660D01*
X20364Y404581D01*
X20292Y404506D01*
X20284Y404488D01*
X20271Y404473D01*
X20232Y404377D01*
X20189Y404283D01*
X20187Y404263D01*
X20179Y404245D01*
X20161Y404078D01*
X20161Y82922D01*
X20164Y82902D01*
X20162Y82883D01*
X20184Y82781D01*
X20200Y82679D01*
X20210Y82662D01*
X20214Y82642D01*
X20267Y82553D01*
X20316Y82462D01*
X20330Y82448D01*
X20340Y82431D01*
X20419Y82364D01*
X20494Y82292D01*
X20512Y82284D01*
X20527Y82271D01*
X20623Y82232D01*
X20717Y82189D01*
X20737Y82187D01*
X20755Y82179D01*
X20922Y82161D01*
X32021Y82161D01*
X35756Y80614D01*
X38614Y77756D01*
X40161Y74021D01*
X40161Y10922D01*
X40164Y10902D01*
X40162Y10883D01*
X40184Y10781D01*
X40200Y10679D01*
X40210Y10662D01*
X40214Y10642D01*
X40267Y10553D01*
X40316Y10462D01*
X40330Y10448D01*
X40340Y10431D01*
X40419Y10364D01*
X40494Y10292D01*
X40512Y10284D01*
X40527Y10271D01*
X40623Y10232D01*
X40717Y10189D01*
X40737Y10187D01*
X40755Y10179D01*
X40922Y10161D01*
X130578Y10161D01*
X130598Y10164D01*
G37*
%LPC*%
G36*
X87905Y123943D02*
X87905Y123943D01*
X84943Y126905D01*
X84943Y131095D01*
X87236Y133388D01*
X87289Y133462D01*
X87349Y133531D01*
X87361Y133561D01*
X87380Y133587D01*
X87407Y133674D01*
X87441Y133759D01*
X87445Y133800D01*
X87452Y133822D01*
X87451Y133855D01*
X87459Y133926D01*
X87459Y241052D01*
X133948Y287541D01*
X196632Y287541D01*
X196722Y287555D01*
X196813Y287563D01*
X196843Y287575D01*
X196875Y287580D01*
X196956Y287623D01*
X197040Y287659D01*
X197072Y287685D01*
X197092Y287696D01*
X197115Y287719D01*
X197171Y287764D01*
X199720Y290313D01*
X199773Y290387D01*
X199833Y290457D01*
X199845Y290487D01*
X199864Y290513D01*
X199891Y290600D01*
X199925Y290685D01*
X199929Y290726D01*
X199936Y290748D01*
X199935Y290780D01*
X199943Y290852D01*
X199943Y294095D01*
X202905Y297057D01*
X207095Y297057D01*
X210057Y294095D01*
X210057Y289905D01*
X207095Y286943D01*
X203852Y286943D01*
X203762Y286929D01*
X203671Y286921D01*
X203641Y286909D01*
X203609Y286904D01*
X203528Y286861D01*
X203444Y286825D01*
X203412Y286799D01*
X203392Y286788D01*
X203369Y286765D01*
X203313Y286720D01*
X199052Y282459D01*
X136368Y282459D01*
X136278Y282445D01*
X136187Y282437D01*
X136157Y282425D01*
X136125Y282420D01*
X136044Y282377D01*
X135960Y282341D01*
X135928Y282315D01*
X135908Y282304D01*
X135885Y282281D01*
X135829Y282236D01*
X92764Y239171D01*
X92711Y239097D01*
X92651Y239027D01*
X92639Y238997D01*
X92620Y238971D01*
X92593Y238884D01*
X92559Y238799D01*
X92555Y238758D01*
X92548Y238736D01*
X92549Y238704D01*
X92541Y238632D01*
X92541Y133926D01*
X92555Y133836D01*
X92563Y133745D01*
X92575Y133715D01*
X92580Y133683D01*
X92623Y133602D01*
X92659Y133519D01*
X92685Y133486D01*
X92696Y133466D01*
X92719Y133444D01*
X92764Y133388D01*
X95057Y131095D01*
X95057Y126905D01*
X92095Y123943D01*
X87905Y123943D01*
G37*
%LPD*%
%LPC*%
G36*
X296905Y113943D02*
X296905Y113943D01*
X293943Y116905D01*
X293943Y121095D01*
X296236Y123388D01*
X296289Y123462D01*
X296349Y123531D01*
X296361Y123561D01*
X296380Y123587D01*
X296407Y123674D01*
X296441Y123759D01*
X296445Y123800D01*
X296452Y123822D01*
X296451Y123855D01*
X296459Y123926D01*
X296459Y227632D01*
X296445Y227722D01*
X296437Y227813D01*
X296425Y227843D01*
X296420Y227875D01*
X296377Y227956D01*
X296341Y228040D01*
X296315Y228072D01*
X296304Y228092D01*
X296281Y228115D01*
X296236Y228171D01*
X231687Y292720D01*
X231613Y292773D01*
X231543Y292833D01*
X231513Y292845D01*
X231487Y292864D01*
X231400Y292891D01*
X231315Y292925D01*
X231274Y292929D01*
X231252Y292936D01*
X231220Y292935D01*
X231148Y292943D01*
X227905Y292943D01*
X224943Y295905D01*
X224943Y300095D01*
X227905Y303057D01*
X232095Y303057D01*
X235057Y300095D01*
X235057Y296852D01*
X235071Y296762D01*
X235079Y296671D01*
X235091Y296641D01*
X235096Y296609D01*
X235139Y296528D01*
X235175Y296444D01*
X235201Y296412D01*
X235212Y296392D01*
X235235Y296369D01*
X235280Y296313D01*
X301541Y230052D01*
X301541Y123926D01*
X301555Y123836D01*
X301563Y123745D01*
X301575Y123715D01*
X301580Y123683D01*
X301623Y123602D01*
X301659Y123519D01*
X301685Y123486D01*
X301696Y123466D01*
X301719Y123444D01*
X301764Y123388D01*
X304057Y121095D01*
X304057Y116905D01*
X301095Y113943D01*
X296905Y113943D01*
G37*
%LPD*%
%LPC*%
G36*
X221905Y361943D02*
X221905Y361943D01*
X219612Y364236D01*
X219538Y364289D01*
X219469Y364349D01*
X219439Y364361D01*
X219413Y364380D01*
X219326Y364407D01*
X219241Y364441D01*
X219200Y364445D01*
X219178Y364452D01*
X219145Y364451D01*
X219074Y364459D01*
X50448Y364459D01*
X46187Y368720D01*
X46113Y368773D01*
X46043Y368833D01*
X46013Y368845D01*
X45987Y368864D01*
X45900Y368891D01*
X45815Y368925D01*
X45774Y368929D01*
X45752Y368936D01*
X45720Y368935D01*
X45648Y368943D01*
X42405Y368943D01*
X39443Y371905D01*
X39443Y376095D01*
X42405Y379057D01*
X46595Y379057D01*
X49557Y376095D01*
X49557Y372852D01*
X49571Y372762D01*
X49579Y372671D01*
X49591Y372641D01*
X49596Y372609D01*
X49639Y372528D01*
X49675Y372444D01*
X49701Y372412D01*
X49712Y372392D01*
X49735Y372369D01*
X49780Y372313D01*
X52329Y369764D01*
X52403Y369711D01*
X52473Y369651D01*
X52503Y369639D01*
X52529Y369620D01*
X52616Y369593D01*
X52701Y369559D01*
X52742Y369555D01*
X52764Y369548D01*
X52796Y369549D01*
X52868Y369541D01*
X219074Y369541D01*
X219164Y369555D01*
X219255Y369563D01*
X219285Y369575D01*
X219317Y369580D01*
X219398Y369623D01*
X219481Y369659D01*
X219514Y369685D01*
X219534Y369696D01*
X219556Y369719D01*
X219612Y369764D01*
X221905Y372057D01*
X226095Y372057D01*
X229057Y369095D01*
X229057Y364905D01*
X226095Y361943D01*
X221905Y361943D01*
G37*
%LPD*%
%LPC*%
G36*
X247905Y121943D02*
X247905Y121943D01*
X244943Y124905D01*
X244943Y128148D01*
X244936Y128193D01*
X244936Y128194D01*
X244935Y128198D01*
X244929Y128238D01*
X244921Y128329D01*
X244909Y128359D01*
X244904Y128391D01*
X244886Y128424D01*
X244884Y128434D01*
X244859Y128475D01*
X244825Y128556D01*
X244799Y128588D01*
X244788Y128608D01*
X244768Y128628D01*
X244758Y128645D01*
X244744Y128657D01*
X244720Y128687D01*
X151459Y221948D01*
X151459Y256052D01*
X157720Y262313D01*
X157773Y262387D01*
X157833Y262457D01*
X157845Y262487D01*
X157864Y262513D01*
X157891Y262600D01*
X157925Y262685D01*
X157929Y262726D01*
X157936Y262748D01*
X157935Y262780D01*
X157943Y262852D01*
X157943Y266095D01*
X160905Y269057D01*
X165095Y269057D01*
X168057Y266095D01*
X168057Y261905D01*
X165095Y258943D01*
X161852Y258943D01*
X161762Y258929D01*
X161671Y258921D01*
X161641Y258909D01*
X161609Y258904D01*
X161528Y258861D01*
X161444Y258825D01*
X161412Y258799D01*
X161392Y258788D01*
X161369Y258765D01*
X161313Y258720D01*
X156764Y254171D01*
X156711Y254097D01*
X156651Y254027D01*
X156639Y253997D01*
X156620Y253971D01*
X156593Y253884D01*
X156559Y253799D01*
X156555Y253758D01*
X156548Y253736D01*
X156549Y253704D01*
X156541Y253632D01*
X156541Y224368D01*
X156555Y224278D01*
X156563Y224187D01*
X156575Y224157D01*
X156580Y224125D01*
X156623Y224044D01*
X156659Y223960D01*
X156685Y223928D01*
X156696Y223908D01*
X156719Y223885D01*
X156764Y223829D01*
X248313Y132280D01*
X248387Y132227D01*
X248457Y132167D01*
X248487Y132155D01*
X248513Y132136D01*
X248600Y132109D01*
X248685Y132075D01*
X248726Y132071D01*
X248748Y132064D01*
X248780Y132065D01*
X248852Y132057D01*
X252095Y132057D01*
X255057Y129095D01*
X255057Y124905D01*
X252095Y121943D01*
X247905Y121943D01*
G37*
%LPD*%
%LPC*%
G36*
X173905Y232943D02*
X173905Y232943D01*
X170943Y235905D01*
X170943Y240095D01*
X173905Y243057D01*
X178095Y243057D01*
X180388Y240764D01*
X180462Y240711D01*
X180531Y240651D01*
X180561Y240639D01*
X180587Y240620D01*
X180674Y240593D01*
X180759Y240559D01*
X180800Y240555D01*
X180822Y240548D01*
X180855Y240549D01*
X180926Y240541D01*
X195632Y240541D01*
X195722Y240555D01*
X195813Y240563D01*
X195843Y240575D01*
X195875Y240580D01*
X195956Y240623D01*
X196040Y240659D01*
X196072Y240685D01*
X196092Y240696D01*
X196115Y240719D01*
X196171Y240764D01*
X216720Y261313D01*
X216773Y261387D01*
X216833Y261457D01*
X216845Y261487D01*
X216864Y261513D01*
X216891Y261600D01*
X216925Y261685D01*
X216929Y261726D01*
X216936Y261748D01*
X216935Y261780D01*
X216943Y261852D01*
X216943Y265095D01*
X219905Y268057D01*
X224095Y268057D01*
X227057Y265095D01*
X227057Y260905D01*
X224095Y257943D01*
X220852Y257943D01*
X220762Y257929D01*
X220671Y257921D01*
X220641Y257909D01*
X220609Y257904D01*
X220528Y257861D01*
X220444Y257825D01*
X220412Y257799D01*
X220392Y257788D01*
X220369Y257765D01*
X220313Y257720D01*
X198052Y235459D01*
X180926Y235459D01*
X180836Y235445D01*
X180745Y235437D01*
X180715Y235425D01*
X180683Y235420D01*
X180602Y235377D01*
X180519Y235341D01*
X180486Y235315D01*
X180466Y235304D01*
X180444Y235281D01*
X180388Y235236D01*
X178095Y232943D01*
X173905Y232943D01*
G37*
%LPD*%
D10*
X105000Y235000D03*
X105000Y225000D03*
X164000Y182000D03*
X164000Y174000D03*
X193000Y111000D03*
X201000Y111000D03*
X209000Y111000D03*
X321000Y110000D03*
X321000Y118000D03*
X27000Y128000D03*
X27000Y136000D03*
X46000Y339000D03*
X46000Y331000D03*
X308000Y324000D03*
X308000Y316000D03*
X315000Y418000D03*
X315000Y409000D03*
X26000Y397000D03*
X26000Y387000D03*
X95000Y306000D03*
X95000Y298000D03*
X230000Y298000D03*
X299000Y119000D03*
D11*
X299000Y229000D01*
X230000Y298000D01*
D10*
X250000Y127000D03*
D11*
X154000Y223000D01*
X154000Y255000D01*
X163000Y264000D01*
D10*
X163000Y264000D03*
X205000Y292000D03*
D11*
X198000Y285000D01*
X135000Y285000D01*
X90000Y240000D02*
X90000Y129000D01*
D10*
X90000Y129000D03*
D11*
X90000Y240000D02*
X135000Y285000D01*
D10*
X176000Y238000D03*
X222000Y263000D03*
D11*
X197000Y238000D02*
X176000Y238000D01*
X197000Y238000D02*
X222000Y263000D01*
D10*
X224000Y367000D03*
D11*
X51500Y367000D01*
X44500Y374000D01*
D10*
X44500Y374000D03*
M02*
