M48
;GenerationSoftware,Autodesk,EAGLE,9.6.2*%
;CreationDate,2022-01-09T12:41:13Z*%
FMAT,2
ICI,OFF
METRIC,TZ,000.000
T2C0.300
T1C0.800
%
G90
M71
T1
X22600Y43900
X14600Y43900
T2
X16400Y18200
X16400Y17400
X19300Y11100
X20100Y11100
X20900Y11100
X32100Y11000
X32100Y11800
X2700Y12800
X2700Y13600
X4600Y33900
X4600Y33100
X30800Y32400
X30800Y31600
X31500Y41800
X10500Y23500
X2600Y39700
X2600Y38700
X9500Y30600
X9500Y29800
X23000Y29800
X29900Y11900
X25000Y12700
X16300Y26400
X20500Y29200
X9000Y12900
X17600Y23800
X22200Y26300
X22400Y36700
X4450Y37400
X10500Y22500
X31500Y40900
M30